<?xml version="1.0" encoding="UTF-8"?>
<svg xmlns="http://www.w3.org/2000/svg" xmlns:xlink="http://www.w3.org/1999/xlink" viewBox="0 0 540 540">
  <defs>
    <style>
      .cls-1, .cls-2, .cls-3 {
        stroke: #000;
      }

      .cls-1, .cls-2, .cls-4 {
        stroke-miterlimit: 10;
      }

      .cls-1, .cls-3, .cls-4 {
        fill: none;
        stroke-width: 4px;
      }

      .cls-5 {
        fill: #fff;
      }

      .cls-2 {
        stroke-width: .25px;
      }

      .cls-6 {
        isolation: isolate;
      }

      .cls-3 {
        stroke-linejoin: bevel;
      }

      .cls-7 {
        mask: url(#mask);
      }

      .cls-4 {
        stroke: #fff;
      }

      .cls-8 {
        mix-blend-mode: multiply;
      }

      .cls-9 {
        filter: url(#luminosity-invert-noclip);
      }
    </style>
    <filter id="luminosity-invert-noclip" x="137.13" y="262.02" width="134.11" height="215.91" color-interpolation-filters="sRGB" filterUnits="userSpaceOnUse">
      <feColorMatrix result="cm" values="-1 0 0 0 1 0 -1 0 0 1 0 0 -1 0 1 0 0 0 1 0"/>
      <feFlood flood-color="#fff" result="bg"/>
      <feBlend in="cm" in2="bg"/>
    </filter>
    <mask id="mask" x="137.13" y="262.02" width="134.11" height="215.91" maskUnits="userSpaceOnUse">
      <g class="cls-9">
        <g>
          <line class="cls-4" x1="174.51" y1="323.15" x2="253.81" y2="345.6"/>
          <line class="cls-4" x1="176.08" y1="317.6" x2="255.38" y2="340.05"/>
          <line class="cls-4" x1="172.94" y1="328.71" x2="252.23" y2="351.15"/>
          <line class="cls-4" x1="174.51" y1="323.15" x2="253.81" y2="345.6"/>
          <line class="cls-4" x1="154.95" y1="392.22" x2="234.44" y2="414.72"/>
          <line class="cls-4" x1="231.25" y1="425.81" x2="151.8" y2="403.32"/>
          <line class="cls-4" x1="153.38" y1="397.77" x2="232.81" y2="420.26"/>
        </g>
      </g>
    </mask>
  </defs>
  <g class="cls-6">
    <g id="_レイヤー_13のコピー_2" data-name="レイヤー 13のコピー 2">
      <g class="cls-8">
        <g>
          <path d="m265.23,127.15c-15.67-4.76-25.79-13.59-30.1-26.23-11.48-33.72,22.84-82.44,24.31-84.5l2.37-3.33,2.46,3.26c26.88,35.6,36.79,64.41,29.44,85.62-6.84,19.74-26.04,24.99-26.85,25.21l-.82.22-.81-.25Z"/>
          <path class="cls-5" d="m261.88,18.17c67.55,89.47,4.22,106.12,4.22,106.12-65.64-19.95-4.22-106.12-4.22-106.12m-.14-10.14l-4.75,6.66c-1.5,2.11-36.68,52.05-24.71,87.21,4.63,13.61,15.42,23.07,32.06,28.13l1.63.49,1.64-.43c.88-.23,21.57-5.89,28.92-27.12,7.7-22.21-2.36-51.96-29.88-88.41l-4.93-6.53h0Z"/>
        </g>
        <g>
          <path d="m207.98,131.14c-16.24-2.08-27.7-9.1-34.05-20.84-16.94-31.34,8.78-85.1,9.89-87.37l1.79-3.68,2.97,2.81c32.44,30.63,47.01,57.38,43.29,79.52-3.45,20.6-21.51,28.98-22.28,29.33l-.77.35-.84-.11Z"/>
          <path class="cls-5" d="m186.52,24.24c81.52,76.96,21.84,103.93,21.84,103.93-68.05-8.74-21.84-103.93-21.84-103.93m-1.83-9.98l-3.57,7.36c-1.13,2.33-27.49,57.43-9.83,90.11,6.84,12.64,19.05,20.18,36.3,22.39l1.69.22,1.55-.7c.83-.37,20.28-9.4,24-31.56,3.89-23.19-10.98-50.84-44.19-82.2l-5.95-5.61h0Z"/>
        </g>
        <g>
          <path d="m294.86,133.42c-4.59,0-9.54-.69-14.7-2.04l-.82-.22-.59-.62c-.58-.61-14.17-15.15-9.65-35.54,4.86-21.91,28.4-41.25,69.96-57.47l3.81-1.49.27,4.08c.15,2.28,3.5,56.19-19.73,81.04-7.6,8.13-17.21,12.25-28.56,12.25Z"/>
          <path class="cls-5" d="m340.16,40.33s6.07,90.09-45.3,90.09c-4.24,0-8.87-.61-13.93-1.94,0,0-45.2-47.38,59.23-88.15m5.44-8.56l-7.62,2.97c-42.55,16.61-66.71,36.67-71.8,59.62-4.87,21.94,9.78,37.61,10.41,38.26l1.17,1.23,1.64.43c5.41,1.42,10.61,2.14,15.46,2.14,12.22,0,22.56-4.44,30.75-13.2,24.11-25.79,20.69-80.96,20.53-83.29l-.55-8.16h0Z"/>
        </g>
        <g>
          <path d="m349.7,168.86c-6.68,0-13.85-1.71-21.31-5.08l-.77-.35-.48-.7c-.47-.7-11.45-17.3-3.59-36.65,8.45-20.8,34.88-35.94,78.56-45.01l4-.83-.41,4.07c-.35,3.45-9.03,84.56-56.01,84.56Z"/>
          <path class="cls-5" d="m402.72,84s-8.22,81.86-53.02,81.86c-6.01,0-12.68-1.47-20.07-4.81,0,0-36.67-54.25,73.09-77.04m6.79-7.54l-8.01,1.66c-44.72,9.29-71.88,25.04-80.73,46.82-8.46,20.82,3.38,38.71,3.89,39.46l.95,1.41,1.55.7c7.85,3.55,15.44,5.34,22.54,5.34,49.66,0,58.63-83.69,58.99-87.26l.82-8.14h0Z"/>
        </g>
        <g>
          <path d="m302.01,158.9c-6.68,0-13.85-1.71-21.31-5.08l-.77-.35-.48-.7c-.47-.7-11.45-17.3-3.59-36.65,8.45-20.8,34.88-35.94,78.56-45.01l4-.83-.41,4.07c-.35,3.45-9.03,84.56-56.01,84.56Z"/>
          <path class="cls-5" d="m355.03,74.04s-8.22,81.86-53.02,81.86c-6.01,0-12.68-1.47-20.07-4.81,0,0-36.67-54.25,73.09-77.04m6.79-7.54l-8.01,1.66c-44.72,9.29-71.88,25.04-80.73,46.82-8.46,20.82,3.38,38.71,3.89,39.46l.95,1.41,1.55.7c7.85,3.55,15.44,5.34,22.54,5.34,49.66,0,58.63-83.69,58.99-87.26l.82-8.14h0Z"/>
        </g>
        <g>
          <path d="m324.77,225.6c-6.68,0-13.85-1.71-21.31-5.08l-.77-.35-.48-.7c-.47-.7-11.45-17.3-3.59-36.65,8.45-20.8,34.88-35.94,78.56-45.01l4-.83-.41,4.07c-.35,3.45-9.03,84.56-56.01,84.56Z"/>
          <path class="cls-5" d="m377.79,140.74s-8.22,81.86-53.02,81.86c-6.01,0-12.68-1.47-20.07-4.81,0,0-36.67-54.25,73.09-77.04m6.79-7.54l-8.01,1.66c-44.72,9.29-71.88,25.04-80.73,46.82-8.46,20.82,3.38,38.71,3.89,39.46l.95,1.41,1.55.7c7.85,3.55,15.44,5.34,22.54,5.34,49.66,0,58.63-83.69,58.99-87.26l.82-8.14h0Z"/>
        </g>
        <g>
          <path d="m201.48,195.19c-16.24-2.08-27.7-9.1-34.05-20.84-16.94-31.34,8.78-85.1,9.89-87.37l1.79-3.68,2.97,2.81c32.44,30.63,47.01,57.38,43.29,79.52-3.45,20.6-21.51,28.98-22.28,29.33l-.77.35-.84-.11Z"/>
          <path class="cls-5" d="m180.02,88.28c81.52,76.96,21.84,103.93,21.84,103.93-68.05-8.74-21.84-103.93-21.84-103.93m-1.83-9.98l-3.57,7.36c-1.13,2.33-27.49,57.43-9.83,90.11,6.84,12.64,19.05,20.18,36.3,22.39l1.69.22,1.55-.7c.83-.37,20.28-9.4,24-31.56,3.89-23.19-10.98-50.84-44.19-82.2l-5.95-5.61h0Z"/>
        </g>
        <g>
          <path d="m275.95,285.32c-6.68,0-13.85-1.71-21.31-5.08l-.77-.35-.48-.7c-.47-.7-11.45-17.3-3.59-36.65,8.45-20.8,34.88-35.94,78.56-45.01l4-.83-.41,4.07c-.35,3.45-9.03,84.56-56.01,84.56Z"/>
          <path class="cls-5" d="m328.97,200.47s-8.22,81.86-53.02,81.86c-6.01,0-12.68-1.47-20.07-4.81,0,0-36.67-54.25,73.09-77.04m6.79-7.54l-8.01,1.66c-44.72,9.29-71.88,25.04-80.73,46.82-8.46,20.82,3.38,38.71,3.89,39.46l.95,1.41,1.55.7c7.85,3.55,15.44,5.34,22.54,5.34,49.66,0,58.63-83.69,58.99-87.26l.82-8.14h0Z"/>
        </g>
        <g>
          <path d="m206.92,266.73c-16.24-2.08-27.7-9.1-34.05-20.84-16.94-31.34,8.78-85.1,9.89-87.37l1.79-3.68,2.97,2.81c32.44,30.63,47.01,57.38,43.29,79.52-3.45,20.6-21.51,28.98-22.28,29.33l-.77.35-.84-.11Z"/>
          <path class="cls-5" d="m185.46,159.82c81.52,76.96,21.84,103.93,21.84,103.93-68.05-8.74-21.84-103.93-21.84-103.93m-1.83-9.98l-3.57,7.36c-1.13,2.33-27.49,57.43-9.83,90.11,6.84,12.64,19.05,20.18,36.3,22.39l1.69.22,1.55-.7c.83-.37,20.28-9.4,24-31.56,3.89-23.19-10.98-50.84-44.19-82.2l-5.95-5.61h0Z"/>
        </g>
        <g>
          <path d="m255.23,143.06c-16.24-2.08-27.7-9.1-34.05-20.84-16.94-31.34,8.78-85.1,9.89-87.37l1.79-3.68,2.97,2.81c32.44,30.63,47.01,57.38,43.29,79.52-3.45,20.6-21.51,28.98-22.28,29.33l-.77.35-.84-.11Z"/>
          <path class="cls-5" d="m233.78,36.16c81.52,76.96,21.84,103.93,21.84,103.93-68.05-8.74-21.84-103.93-21.84-103.93m-1.83-9.98l-3.57,7.36c-1.13,2.33-27.49,57.43-9.83,90.11,6.84,12.64,19.05,20.18,36.3,22.39l1.69.22,1.55-.7c.83-.37,20.28-9.4,24-31.56,3.89-23.19-10.98-50.84-44.19-82.2l-5.95-5.61h0Z"/>
        </g>
        <g>
          <path d="m265.86,157.85c-.93,0-1.45-.04-1.45-.04l-.84-.07-.7-.49c-13.28-9.58-20-21.21-19.97-34.56.06-35.62,48.33-70.59,50.38-72.06l3.32-2.38,1.27,3.88c13.59,41.45,13.91,71.53.97,89.39-10.98,15.16-28.02,16.34-32.99,16.34Z"/>
          <path class="cls-5" d="m295.02,53.06c32.04,97.77-20.33,101.79-29.16,101.79-.79,0-1.23-.03-1.23-.03-55.63-40.15,30.4-101.76,30.4-101.76m3.15-9.64l-6.65,4.76c-2.11,1.51-51.57,37.35-51.63,74.5-.03,14.37,7.11,26.82,21.22,37l1.38.99,1.7.12c.11,0,.71.05,1.67.05,5.32,0,23.6-1.27,35.42-17.58,13.54-18.68,13.35-49.66-.55-92.08l-2.55-7.77h0Z"/>
        </g>
        <g>
          <path d="m281.18,216.8c-6.68,0-13.85-1.71-21.31-5.08l-.77-.35-.48-.7c-.47-.7-11.45-17.3-3.59-36.65,8.45-20.8,34.88-35.94,78.56-45.01l4-.83-.41,4.07c-.35,3.45-9.03,84.56-56.01,84.56Z"/>
          <path class="cls-5" d="m334.2,131.94s-8.22,81.86-53.02,81.86c-6.01,0-12.68-1.47-20.07-4.81,0,0-36.67-54.25,73.09-77.04m6.79-7.54l-8.01,1.66c-44.72,9.29-71.88,25.04-80.73,46.82-8.46,20.82,3.38,38.71,3.89,39.46l.95,1.41,1.55.7c7.85,3.55,15.44,5.34,22.54,5.34,49.66,0,58.63-83.69,58.99-87.26l.82-8.14h0Z"/>
        </g>
        <g>
          <path d="m258.73,280.45c-6.68,0-13.85-1.71-21.31-5.08l-.77-.35-.48-.7c-.47-.7-11.45-17.3-3.59-36.65,8.45-20.8,34.88-35.94,78.56-45.01l4-.83-.41,4.07c-.35,3.45-9.03,84.56-56.01,84.56Z"/>
          <path class="cls-5" d="m311.75,195.59s-8.22,81.86-53.02,81.86c-6.01,0-12.68-1.47-20.07-4.81,0,0-36.67-54.25,73.09-77.04m6.79-7.54l-8.01,1.66c-44.72,9.29-71.88,25.04-80.73,46.82-8.46,20.82,3.38,38.71,3.89,39.46l.95,1.41,1.55.7c7.85,3.55,15.44,5.34,22.54,5.34,49.66,0,58.63-83.69,58.99-87.26l.82-8.14h0Z"/>
        </g>
        <g>
          <path d="m245.78,207.73c-16.24-2.08-27.7-9.1-34.05-20.84-16.94-31.34,8.78-85.1,9.89-87.37l1.79-3.68,2.97,2.81c32.44,30.63,47.01,57.38,43.29,79.52-3.45,20.6-21.51,28.98-22.28,29.33l-.77.35-.84-.11Z"/>
          <path class="cls-5" d="m224.32,100.83c81.52,76.96,21.84,103.93,21.84,103.93-68.05-8.74-21.84-103.93-21.84-103.93m-1.83-9.98l-3.57,7.36c-1.13,2.33-27.49,57.43-9.83,90.11,6.84,12.64,19.05,20.18,36.3,22.39l1.69.22,1.55-.7c.83-.37,20.28-9.4,24-31.56,3.89-23.19-10.98-50.84-44.19-82.2l-5.95-5.61h0Z"/>
        </g>
        <g>
          <path d="m227.43,272.54c-16.24-2.08-27.7-9.1-34.05-20.84-16.94-31.34,8.78-85.1,9.89-87.37l1.79-3.68,2.97,2.81c32.44,30.63,47.01,57.38,43.29,79.52-3.45,20.6-21.51,28.98-22.28,29.33l-.77.35-.84-.11Z"/>
          <path class="cls-5" d="m205.97,165.63c81.52,76.96,21.84,103.93,21.84,103.93-68.05-8.74-21.84-103.93-21.84-103.93m-1.83-9.98l-3.57,7.36c-1.13,2.33-27.49,57.43-9.83,90.11,6.84,12.64,19.05,20.18,36.3,22.39l1.69.22,1.55-.7c.83-.37,20.28-9.4,24-31.56,3.89-23.19-10.98-50.84-44.19-82.2l-5.95-5.61h0Z"/>
        </g>
        <g>
          <path d="m249.13,216.91c-.93,0-1.45-.04-1.45-.04l-.84-.07-.7-.49c-13.28-9.58-20-21.21-19.97-34.56.06-35.62,48.33-70.59,50.38-72.06l3.32-2.38,1.27,3.88c13.59,41.45,13.91,71.53.97,89.39-10.98,15.16-28.02,16.34-32.99,16.34Z"/>
          <path class="cls-5" d="m278.29,112.12c32.04,97.77-20.33,101.79-29.16,101.79-.79,0-1.23-.03-1.23-.03-55.63-40.15,30.4-101.76,30.4-101.76m3.15-9.64l-6.65,4.76c-2.11,1.51-51.57,37.35-51.63,74.5-.03,14.37,7.11,26.82,21.22,37l1.38.99,1.7.12c.11,0,.71.05,1.67.05,5.32,0,23.6-1.27,35.42-17.58,13.54-18.68,13.35-49.66-.55-92.08l-2.55-7.77h0Z"/>
        </g>
        <g>
          <path d="m232.87,274.34c-.93,0-1.45-.04-1.45-.04l-.84-.07-.7-.49c-13.28-9.58-20-21.21-19.97-34.57.06-35.62,48.33-70.59,50.38-72.06l3.32-2.38,1.27,3.88c13.59,41.46,13.91,71.53.97,89.39-10.98,15.16-28.02,16.33-32.98,16.33h0Z"/>
          <path class="cls-5" d="m262.03,169.55c32.04,97.77-20.33,101.79-29.16,101.79-.79,0-1.23-.03-1.23-.03-55.63-40.15,30.4-101.76,30.4-101.76m3.15-9.64l-6.65,4.76c-2.11,1.51-51.57,37.35-51.63,74.5-.03,14.37,7.11,26.82,21.22,37l1.38.99,1.7.12c.11,0,.71.05,1.67.05,5.32,0,23.6-1.27,35.42-17.58,13.54-18.68,13.35-49.66-.55-92.08l-2.55-7.77h0Z"/>
        </g>
        <path class="cls-1" d="m139.24,454.14l16.58,70.84s2.61,6.06,7.34,2.08l52.08-50.81"/>
        <g class="cls-7">
          <polygon class="cls-2" points="216.61 477.69 271.08 284.63 191.78 262.17 137.28 454.61 137.75 454.74 147.23 453 153.33 459.16 162.04 457.19 168.14 463.35 177.67 461.62 183.53 467.71 193.31 466.04 201.1 472.68 209.76 470.7 215.77 476.83 216.61 477.69"/>
        </g>
        <path d="m151.18,503.63l28.64,8.11-15.51,15.2s-4.63,4.01-7.34-2.08l-5.8-21.23Z"/>
        <g>
          <path class="cls-3" d="m176.08,317.6l-6.03-1.71c-4.21,2.35-1.57,5.55-1.57,5.55l6.03,1.71"/>
          <path class="cls-3" d="m253.81,345.6l5.3,1.5c5.24-1.38,1.57-5.55,1.57-5.55l-5.3-1.5"/>
          <path class="cls-3" d="m253.81,345.6l5.3,1.5s3.67,4.17-1.57,5.55l-5.3-1.5"/>
          <path class="cls-3" d="m174.51,323.15l-6.03-1.7c-4.21,2.35-1.57,5.55-1.57,5.55l6.03,1.71"/>
          <path class="cls-3" d="m232.81,420.26l5.12,1.45c5.24-1.38,1.57-5.55,1.57-5.55l-5.13-1.45"/>
          <path class="cls-3" d="m154.95,392.22l-6.07-1.72c-4.21,2.35-1.57,5.55-1.57,5.55l6.07,1.72"/>
          <path class="cls-3" d="m153.38,397.77l-6.07-1.71c-4.21,2.35-1.57,5.55-1.57,5.55l6.07,1.72"/>
          <path class="cls-3" d="m232.81,420.26l5.12,1.45s3.67,4.17-1.57,5.55l-5.12-1.45"/>
        </g>
      </g>
    </g>
  </g>
</svg>