<?xml version="1.0" encoding="UTF-8"?>
<svg xmlns="http://www.w3.org/2000/svg" viewBox="0 0 540 540">
  <defs>
    <style>
      .cls-1 {
        fill: #009250;
      }

      .cls-2 {
        fill: #6d3420;
      }

      .cls-3 {
        isolation: isolate;
      }

      .cls-4 {
        fill: #819c1a;
        stroke: #294c00;
      }

      .cls-4, .cls-5 {
        stroke-miterlimit: 10;
        stroke-width: 4px;
      }

      .cls-6 {
        fill: #005e1f;
      }

      .cls-7 {
        fill: #3eb680;
      }

      .cls-5 {
        stroke: #6d3420;
      }

      .cls-5, .cls-8 {
        fill: #fce6de;
      }

      .cls-9 {
        fill: #6fc99e;
      }

      .cls-10 {
        fill: #e7855e;
      }
    </style>
  </defs>
  <g class="cls-3">
    <g id="_レイヤー_6" data-name="レイヤー 6">
      <g>
        <g>
          <g>
            <path class="cls-1" d="m265.23,126.57c-15.67-4.76-25.79-13.59-30.1-26.23-11.48-33.72,22.84-82.44,24.31-84.5l2.37-3.33,2.46,3.26c26.88,35.6,36.79,64.41,29.44,85.62-6.84,19.74-26.04,24.99-26.85,25.2l-.82.22-.81-.25Z"/>
            <path class="cls-6" d="m261.88,17.59c67.55,89.47,4.22,106.12,4.22,106.12-65.64-19.95-4.22-106.12-4.22-106.12m-.14-10.14l-4.75,6.66c-1.5,2.11-36.68,52.05-24.71,87.21,4.63,13.61,15.42,23.07,32.06,28.13l1.63.49,1.64-.43c.88-.23,21.57-5.89,28.92-27.12,7.7-22.21-2.36-51.96-29.88-88.41l-4.93-6.53h0Z"/>
          </g>
          <g>
            <path class="cls-1" d="m207.98,130.56c-16.24-2.08-27.7-9.1-34.05-20.84-16.94-31.34,8.78-85.1,9.89-87.37l1.79-3.68,2.97,2.81c32.44,30.63,47.01,57.38,43.29,79.52-3.45,20.6-21.51,28.98-22.28,29.33l-.77.35-.84-.11Z"/>
            <path class="cls-6" d="m186.52,23.66c81.52,76.96,21.84,103.93,21.84,103.93-68.05-8.74-21.84-103.93-21.84-103.93m-1.83-9.98l-3.57,7.36c-1.13,2.33-27.49,57.43-9.83,90.11,6.84,12.64,19.05,20.18,36.3,22.39l1.69.22,1.55-.7c.83-.37,20.28-9.4,24-31.56,3.89-23.19-10.98-50.84-44.19-82.2l-5.95-5.61h0Z"/>
          </g>
          <g>
            <path class="cls-1" d="m294.86,132.84c-4.59,0-9.54-.69-14.7-2.04l-.82-.22-.59-.62c-.58-.61-14.17-15.15-9.65-35.54,4.86-21.91,28.4-41.25,69.96-57.47l3.81-1.49.27,4.08c.15,2.28,3.5,56.19-19.73,81.04-7.6,8.13-17.21,12.25-28.56,12.25Z"/>
            <path class="cls-6" d="m340.16,39.75s6.07,90.09-45.3,90.09c-4.24,0-8.87-.61-13.93-1.94,0,0-45.2-47.38,59.23-88.15m5.44-8.56l-7.62,2.97c-42.55,16.61-66.71,36.67-71.8,59.62-4.87,21.94,9.78,37.61,10.41,38.26l1.17,1.23,1.64.43c5.41,1.42,10.61,2.14,15.46,2.14,12.22,0,22.56-4.44,30.75-13.2,24.11-25.79,20.69-80.96,20.53-83.29l-.55-8.16h0Z"/>
          </g>
          <g>
            <path class="cls-1" d="m349.7,168.28c-6.68,0-13.85-1.71-21.31-5.08l-.77-.35-.48-.7c-.47-.7-11.45-17.3-3.59-36.65,8.45-20.8,34.88-35.94,78.56-45.01l4-.83-.41,4.07c-.35,3.45-9.03,84.56-56.01,84.56Z"/>
            <path class="cls-6" d="m402.72,83.42s-8.22,81.86-53.02,81.86c-6.01,0-12.68-1.47-20.07-4.81,0,0-36.67-54.25,73.09-77.04m6.79-7.54l-8.01,1.66c-44.72,9.29-71.88,25.04-80.73,46.82-8.46,20.82,3.38,38.71,3.89,39.46l.95,1.41,1.55.7c7.85,3.55,15.44,5.34,22.54,5.34,49.66,0,58.63-83.69,58.99-87.26l.82-8.14h0Z"/>
          </g>
          <g>
            <path class="cls-1" d="m302.01,158.32c-6.68,0-13.85-1.71-21.31-5.08l-.77-.35-.48-.7c-.47-.7-11.45-17.3-3.59-36.65,8.45-20.8,34.88-35.94,78.56-45.01l4-.83-.41,4.07c-.35,3.45-9.03,84.56-56.01,84.56Z"/>
            <path class="cls-6" d="m355.03,73.46s-8.22,81.86-53.02,81.86c-6.01,0-12.68-1.47-20.07-4.81,0,0-36.67-54.25,73.09-77.04m6.79-7.54l-8.01,1.66c-44.72,9.29-71.88,25.04-80.73,46.82-8.46,20.82,3.38,38.71,3.89,39.46l.95,1.41,1.55.7c7.85,3.55,15.44,5.34,22.54,5.34,49.66,0,58.63-83.69,58.99-87.26l.82-8.14h0Z"/>
          </g>
          <g>
            <path class="cls-1" d="m324.77,225.02c-6.68,0-13.85-1.71-21.31-5.08l-.77-.35-.48-.7c-.47-.7-11.45-17.3-3.59-36.65,8.45-20.8,34.88-35.94,78.56-45.01l4-.83-.41,4.07c-.35,3.45-9.03,84.56-56.01,84.56Z"/>
            <path class="cls-6" d="m377.79,140.16s-8.22,81.86-53.02,81.86c-6.01,0-12.68-1.47-20.07-4.81,0,0-36.67-54.25,73.09-77.04m6.79-7.54l-8.01,1.66c-44.72,9.29-71.88,25.04-80.73,46.82-8.46,20.82,3.38,38.71,3.89,39.46l.95,1.41,1.55.7c7.85,3.55,15.44,5.34,22.54,5.34,49.66,0,58.63-83.69,58.99-87.26l.82-8.14h0Z"/>
          </g>
          <g>
            <path class="cls-1" d="m201.48,194.61c-16.24-2.08-27.7-9.1-34.05-20.84-16.94-31.34,8.78-85.1,9.89-87.37l1.79-3.68,2.97,2.81c32.44,30.63,47.01,57.38,43.29,79.52-3.45,20.6-21.51,28.98-22.28,29.33l-.77.35-.84-.11Z"/>
            <path class="cls-6" d="m180.02,87.7c81.52,76.96,21.84,103.93,21.84,103.93-68.05-8.74-21.84-103.93-21.84-103.93m-1.83-9.98l-3.57,7.36c-1.13,2.33-27.49,57.43-9.83,90.11,6.84,12.64,19.05,20.18,36.3,22.39l1.69.22,1.55-.7c.83-.37,20.28-9.4,24-31.56,3.89-23.19-10.98-50.84-44.19-82.2l-5.95-5.61h0Z"/>
          </g>
          <g>
            <path class="cls-1" d="m275.95,284.75c-6.68,0-13.85-1.71-21.31-5.08l-.77-.35-.48-.7c-.47-.7-11.45-17.3-3.59-36.65,8.45-20.8,34.88-35.94,78.56-45.01l4-.83-.41,4.07c-.35,3.45-9.03,84.56-56.01,84.56Z"/>
            <path class="cls-6" d="m328.97,199.89s-8.22,81.86-53.02,81.86c-6.01,0-12.68-1.47-20.07-4.81,0,0-36.67-54.25,73.09-77.04m6.79-7.54l-8.01,1.66c-44.72,9.29-71.88,25.04-80.73,46.82-8.46,20.82,3.38,38.71,3.89,39.46l.95,1.41,1.55.7c7.85,3.55,15.44,5.34,22.54,5.34,49.66,0,58.63-83.69,58.99-87.26l.82-8.14h0Z"/>
          </g>
          <g>
            <path class="cls-1" d="m206.92,266.15c-16.24-2.08-27.7-9.1-34.05-20.84-16.94-31.34,8.78-85.1,9.89-87.37l1.79-3.68,2.97,2.81c32.44,30.63,47.01,57.38,43.29,79.52-3.45,20.6-21.51,28.98-22.28,29.33l-.77.35-.84-.11Z"/>
            <path class="cls-6" d="m185.46,159.25c81.52,76.96,21.84,103.93,21.84,103.93-68.05-8.74-21.84-103.93-21.84-103.93m-1.83-9.98l-3.57,7.36c-1.13,2.33-27.49,57.43-9.83,90.11,6.84,12.64,19.05,20.18,36.3,22.39l1.69.22,1.55-.7c.83-.37,20.28-9.4,24-31.56,3.89-23.19-10.98-50.84-44.19-82.2l-5.95-5.61h0Z"/>
          </g>
          <g>
            <path class="cls-1" d="m255.24,142.48c-16.24-2.08-27.7-9.1-34.05-20.84-16.94-31.34,8.78-85.1,9.89-87.37l1.79-3.68,2.97,2.81c32.44,30.63,47.01,57.38,43.29,79.52-3.45,20.6-21.51,28.98-22.28,29.33l-.77.35-.84-.11Z"/>
            <path class="cls-6" d="m233.78,35.58c81.52,76.96,21.84,103.93,21.84,103.93-68.05-8.74-21.84-103.93-21.84-103.93m-1.83-9.98l-3.57,7.36c-1.13,2.33-27.49,57.43-9.83,90.11,6.84,12.64,19.05,20.18,36.3,22.39l1.69.22,1.55-.7c.83-.37,20.28-9.4,24-31.56,3.89-23.19-10.98-50.84-44.19-82.2l-5.95-5.61h0Z"/>
          </g>
          <g>
            <path class="cls-1" d="m265.86,157.27c-.93,0-1.45-.04-1.45-.04l-.84-.07-.7-.49c-13.28-9.58-20-21.21-19.97-34.57.06-35.62,48.33-70.59,50.38-72.06l3.32-2.38,1.27,3.88c13.59,41.46,13.91,71.53.97,89.39-10.98,15.16-28.02,16.33-32.98,16.33h0Z"/>
            <path class="cls-6" d="m295.02,52.48c32.04,97.77-20.33,101.79-29.16,101.79-.79,0-1.23-.03-1.23-.03-55.63-40.15,30.4-101.76,30.4-101.76m3.15-9.64l-6.65,4.76c-2.11,1.51-51.57,37.35-51.63,74.5-.03,14.37,7.11,26.82,21.22,37l1.38.99,1.7.12c.11,0,.71.05,1.67.05,5.32,0,23.6-1.27,35.42-17.58,13.54-18.68,13.35-49.66-.55-92.08l-2.55-7.77h0Z"/>
          </g>
          <g>
            <path class="cls-1" d="m281.18,216.22c-6.68,0-13.85-1.71-21.31-5.08l-.77-.35-.48-.7c-.47-.7-11.45-17.3-3.59-36.65,8.45-20.8,34.88-35.94,78.56-45.01l4-.83-.41,4.07c-.35,3.45-9.03,84.56-56.01,84.56Z"/>
            <path class="cls-6" d="m334.2,131.36s-8.22,81.86-53.02,81.86c-6.01,0-12.68-1.47-20.07-4.81,0,0-36.67-54.25,73.09-77.04m6.79-7.54l-8.01,1.66c-44.72,9.29-71.88,25.04-80.73,46.82-8.46,20.82,3.38,38.71,3.89,39.46l.95,1.41,1.55.7c7.85,3.55,15.44,5.34,22.54,5.34,49.66,0,58.63-83.69,58.99-87.26l.82-8.14h0Z"/>
          </g>
          <g>
            <path class="cls-1" d="m258.73,279.87c-6.68,0-13.85-1.71-21.31-5.08l-.77-.35-.48-.7c-.47-.7-11.45-17.3-3.59-36.65,8.45-20.8,34.88-35.94,78.56-45.01l4-.83-.41,4.07c-.35,3.45-9.03,84.56-56.01,84.56Z"/>
            <path class="cls-6" d="m311.75,195.01s-8.22,81.86-53.02,81.86c-6.01,0-12.68-1.47-20.07-4.81,0,0-36.67-54.25,73.09-77.04m6.79-7.54l-8.01,1.66c-44.72,9.29-71.88,25.04-80.73,46.82-8.46,20.82,3.38,38.71,3.89,39.46l.95,1.41,1.55.7c7.85,3.55,15.44,5.34,22.54,5.34,49.66,0,58.63-83.69,58.99-87.26l.82-8.14h0Z"/>
          </g>
          <g>
            <path class="cls-1" d="m245.78,207.15c-16.24-2.08-27.7-9.1-34.05-20.84-16.94-31.34,8.78-85.1,9.89-87.37l1.79-3.68,2.97,2.81c32.44,30.63,47.01,57.38,43.29,79.52-3.45,20.6-21.51,28.98-22.28,29.33l-.77.35-.84-.11Z"/>
            <path class="cls-6" d="m224.32,100.25c81.52,76.96,21.84,103.93,21.84,103.93-68.05-8.74-21.84-103.93-21.84-103.93m-1.83-9.98l-3.57,7.36c-1.13,2.33-27.49,57.43-9.83,90.11,6.84,12.64,19.05,20.18,36.3,22.39l1.69.22,1.55-.7c.83-.37,20.28-9.4,24-31.56,3.89-23.19-10.98-50.84-44.19-82.2l-5.95-5.61h0Z"/>
          </g>
          <g>
            <path class="cls-1" d="m227.43,271.96c-16.24-2.08-27.7-9.1-34.05-20.84-16.94-31.34,8.78-85.1,9.89-87.37l1.79-3.68,2.97,2.81c32.44,30.63,47.01,57.38,43.29,79.52-3.45,20.6-21.51,28.98-22.28,29.33l-.77.35-.84-.11Z"/>
            <path class="cls-6" d="m205.97,165.05c81.52,76.96,21.84,103.93,21.84,103.93-68.05-8.74-21.84-103.93-21.84-103.93m-1.83-9.98l-3.57,7.36c-1.13,2.33-27.49,57.43-9.83,90.11,6.84,12.64,19.05,20.18,36.3,22.39l1.69.22,1.55-.7c.83-.37,20.28-9.4,24-31.56,3.89-23.19-10.98-50.84-44.19-82.2l-5.95-5.61h0Z"/>
          </g>
          <g>
            <path class="cls-1" d="m249.13,216.33c-.93,0-1.45-.04-1.45-.04l-.84-.07-.7-.49c-13.28-9.58-20-21.21-19.97-34.56.06-35.62,48.33-70.59,50.38-72.06l3.32-2.38,1.27,3.88c13.59,41.45,13.91,71.53.97,89.39-10.98,15.16-28.02,16.34-32.99,16.34Z"/>
            <path class="cls-6" d="m278.29,111.54c32.04,97.77-20.33,101.79-29.16,101.79-.79,0-1.23-.03-1.23-.03-55.63-40.15,30.4-101.76,30.4-101.76m3.15-9.64l-6.65,4.76c-2.11,1.51-51.57,37.35-51.63,74.5-.03,14.37,7.11,26.82,21.22,37l1.38.99,1.7.12c.11,0,.71.05,1.67.05,5.32,0,23.6-1.27,35.42-17.58,13.54-18.68,13.35-49.66-.55-92.08l-2.55-7.77h0Z"/>
          </g>
          <g>
            <path class="cls-1" d="m232.87,273.76c-.93,0-1.45-.04-1.45-.04l-.84-.07-.7-.49c-13.28-9.58-20-21.21-19.97-34.56.06-35.62,48.33-70.59,50.38-72.06l3.32-2.38,1.27,3.88c13.59,41.45,13.91,71.53.97,89.39-10.98,15.16-28.02,16.34-32.99,16.34Z"/>
            <path class="cls-6" d="m262.03,168.97c32.04,97.77-20.33,101.79-29.16,101.79-.79,0-1.23-.03-1.23-.03-55.63-40.15,30.4-101.76,30.4-101.76m3.15-9.64l-6.65,4.76c-2.11,1.51-51.57,37.35-51.63,74.5-.03,14.37,7.11,26.82,21.22,37l1.38.99,1.7.12c.11,0,.71.05,1.67.05,5.32,0,23.6-1.27,35.42-17.58,13.54-18.68,13.35-49.66-.55-92.08l-2.55-7.77h0Z"/>
          </g>
          <g>
            <path class="cls-1" d="m265.23,126.57c-15.67-4.76-25.79-13.59-30.1-26.23-11.48-33.72,22.84-82.44,24.31-84.5l2.37-3.33,2.46,3.26c26.88,35.6,36.79,64.41,29.44,85.62-6.84,19.74-26.04,24.99-26.85,25.2l-.82.22-.81-.25Z"/>
            <path class="cls-6" d="m261.88,17.59c67.55,89.47,4.22,106.12,4.22,106.12-65.64-19.95-4.22-106.12-4.22-106.12m-.14-10.14l-4.75,6.66c-1.5,2.11-36.68,52.05-24.71,87.21,4.63,13.61,15.42,23.07,32.06,28.13l1.63.49,1.64-.43c.88-.23,21.57-5.89,28.92-27.12,7.7-22.21-2.36-51.96-29.88-88.41l-4.93-6.53h0Z"/>
          </g>
          <g>
            <path class="cls-1" d="m206.83,128.77c-16.24-2.08-27.7-9.1-34.05-20.84-16.94-31.34,8.78-85.1,9.89-87.37l1.79-3.68,2.97,2.81c32.44,30.63,47.01,57.38,43.29,79.52-3.45,20.6-21.51,28.98-22.28,29.33l-.77.35-.84-.11Z"/>
            <path class="cls-6" d="m185.37,21.87c81.52,76.96,21.84,103.93,21.84,103.93-68.05-8.74-21.84-103.93-21.84-103.93m-1.83-9.98l-3.57,7.36c-1.13,2.33-27.49,57.43-9.83,90.11,6.84,12.64,19.05,20.18,36.3,22.39l1.69.22,1.55-.7c.83-.37,20.28-9.4,24-31.56,3.89-23.19-10.98-50.84-44.19-82.2l-5.95-5.61h0Z"/>
          </g>
          <g>
            <path class="cls-1" d="m294.86,132.84c-4.59,0-9.54-.69-14.7-2.04l-.82-.22-.59-.62c-.58-.61-14.17-15.15-9.65-35.54,4.86-21.91,28.4-41.25,69.96-57.47l3.81-1.49.27,4.08c.15,2.28,3.5,56.19-19.73,81.04-7.6,8.13-17.21,12.25-28.56,12.25Z"/>
            <path class="cls-6" d="m340.16,39.75s6.07,90.09-45.3,90.09c-4.24,0-8.87-.61-13.93-1.94,0,0-45.2-47.38,59.23-88.15m5.44-8.56l-7.62,2.97c-42.55,16.61-66.71,36.67-71.8,59.62-4.87,21.94,9.78,37.61,10.41,38.26l1.17,1.23,1.64.43c5.41,1.42,10.61,2.14,15.46,2.14,12.22,0,22.56-4.44,30.75-13.2,24.11-25.79,20.69-80.96,20.53-83.29l-.55-8.16h0Z"/>
          </g>
          <g>
            <path class="cls-1" d="m349.7,168.28c-6.68,0-13.85-1.71-21.31-5.08l-.77-.35-.48-.7c-.47-.7-11.45-17.3-3.59-36.65,8.45-20.8,34.88-35.94,78.56-45.01l4-.83-.41,4.07c-.35,3.45-9.03,84.56-56.01,84.56Z"/>
            <path class="cls-6" d="m402.72,83.42s-8.22,81.86-53.02,81.86c-6.01,0-12.68-1.47-20.07-4.81,0,0-36.67-54.25,73.09-77.04m6.79-7.54l-8.01,1.66c-44.72,9.29-71.88,25.04-80.73,46.82-8.46,20.82,3.38,38.71,3.89,39.46l.95,1.41,1.55.7c7.85,3.55,15.44,5.34,22.54,5.34,49.66,0,58.63-83.69,58.99-87.26l.82-8.14h0Z"/>
          </g>
          <g>
            <path class="cls-7" d="m302.01,158.32c-6.68,0-13.85-1.71-21.31-5.08l-.77-.35-.48-.7c-.47-.7-11.45-17.3-3.59-36.65,8.45-20.8,34.88-35.94,78.56-45.01l4-.83-.41,4.07c-.35,3.45-9.03,84.56-56.01,84.56Z"/>
            <path class="cls-6" d="m355.03,73.46s-8.22,81.86-53.02,81.86c-6.01,0-12.68-1.47-20.07-4.81,0,0-36.67-54.25,73.09-77.04m6.79-7.54l-8.01,1.66c-44.72,9.29-71.88,25.04-80.73,46.82-8.46,20.82,3.38,38.71,3.89,39.46l.95,1.41,1.55.7c7.85,3.55,15.44,5.34,22.54,5.34,49.66,0,58.63-83.69,58.99-87.26l.82-8.14h0Z"/>
          </g>
          <g>
            <path class="cls-1" d="m324.77,225.02c-6.68,0-13.85-1.71-21.31-5.08l-.77-.35-.48-.7c-.47-.7-11.45-17.3-3.59-36.65,8.45-20.8,34.88-35.94,78.56-45.01l4-.83-.41,4.07c-.35,3.45-9.03,84.56-56.01,84.56Z"/>
            <path class="cls-6" d="m377.79,140.16s-8.22,81.86-53.02,81.86c-6.01,0-12.68-1.47-20.07-4.81,0,0-36.67-54.25,73.09-77.04m6.79-7.54l-8.01,1.66c-44.72,9.29-71.88,25.04-80.73,46.82-8.46,20.82,3.38,38.71,3.89,39.46l.95,1.41,1.55.7c7.85,3.55,15.44,5.34,22.54,5.34,49.66,0,58.63-83.69,58.99-87.26l.82-8.14h0Z"/>
          </g>
          <g>
            <path class="cls-1" d="m201.48,194.61c-16.24-2.08-27.7-9.1-34.05-20.84-16.94-31.34,8.78-85.1,9.89-87.37l1.79-3.68,2.97,2.81c32.44,30.63,47.01,57.38,43.29,79.52-3.45,20.6-21.51,28.98-22.28,29.33l-.77.35-.84-.11Z"/>
            <path class="cls-6" d="m180.02,87.7c81.52,76.96,21.84,103.93,21.84,103.93-68.05-8.74-21.84-103.93-21.84-103.93m-1.83-9.98l-3.57,7.36c-1.13,2.33-27.49,57.43-9.83,90.11,6.84,12.64,19.05,20.18,36.3,22.39l1.69.22,1.55-.7c.83-.37,20.28-9.4,24-31.56,3.89-23.19-10.98-50.84-44.19-82.2l-5.95-5.61h0Z"/>
          </g>
          <g>
            <path class="cls-1" d="m275.95,284.75c-6.68,0-13.85-1.71-21.31-5.08l-.77-.35-.48-.7c-.47-.7-11.45-17.3-3.59-36.65,8.45-20.8,34.88-35.94,78.56-45.01l4-.83-.41,4.07c-.35,3.45-9.03,84.56-56.01,84.56Z"/>
            <path class="cls-6" d="m328.97,199.89s-8.22,81.86-53.02,81.86c-6.01,0-12.68-1.47-20.07-4.81,0,0-36.67-54.25,73.09-77.04m6.79-7.54l-8.01,1.66c-44.72,9.29-71.88,25.04-80.73,46.82-8.46,20.82,3.38,38.71,3.89,39.46l.95,1.41,1.55.7c7.85,3.55,15.44,5.34,22.54,5.34,49.66,0,58.63-83.69,58.99-87.26l.82-8.14h0Z"/>
          </g>
          <g>
            <path class="cls-1" d="m206.92,266.15c-16.24-2.08-27.7-9.1-34.05-20.84-16.94-31.34,8.78-85.1,9.89-87.37l1.79-3.68,2.97,2.81c32.44,30.63,47.01,57.38,43.29,79.52-3.45,20.6-21.51,28.98-22.28,29.33l-.77.35-.84-.11Z"/>
            <path class="cls-6" d="m185.46,159.25c81.52,76.96,21.84,103.93,21.84,103.93-68.05-8.74-21.84-103.93-21.84-103.93m-1.83-9.98l-3.57,7.36c-1.13,2.33-27.49,57.43-9.83,90.11,6.84,12.64,19.05,20.18,36.3,22.39l1.69.22,1.55-.7c.83-.37,20.28-9.4,24-31.56,3.89-23.19-10.98-50.84-44.19-82.2l-5.95-5.61h0Z"/>
          </g>
          <g>
            <path class="cls-7" d="m255.24,142.48c-16.24-2.08-27.7-9.1-34.05-20.84-16.94-31.34,8.78-85.1,9.89-87.37l1.79-3.68,2.97,2.81c32.44,30.63,47.01,57.38,43.29,79.52-3.45,20.6-21.51,28.98-22.28,29.33l-.77.35-.84-.11Z"/>
            <path class="cls-6" d="m233.78,35.58c81.52,76.96,21.84,103.93,21.84,103.93-68.05-8.74-21.84-103.93-21.84-103.93m-1.83-9.98l-3.57,7.36c-1.13,2.33-27.49,57.43-9.83,90.11,6.84,12.64,19.05,20.18,36.3,22.39l1.69.22,1.55-.7c.83-.37,20.28-9.4,24-31.56,3.89-23.19-10.98-50.84-44.19-82.2l-5.95-5.61h0Z"/>
          </g>
          <g>
            <path class="cls-9" d="m265.86,157.27c-.93,0-1.45-.04-1.45-.04l-.84-.07-.7-.49c-13.28-9.58-20-21.21-19.97-34.57.06-35.62,48.33-70.59,50.38-72.06l3.32-2.38,1.27,3.88c13.59,41.46,13.91,71.53.97,89.39-10.98,15.16-28.02,16.33-32.98,16.33h0Z"/>
            <path class="cls-6" d="m295.02,52.48c32.04,97.77-20.33,101.79-29.16,101.79-.79,0-1.23-.03-1.23-.03-55.63-40.15,30.4-101.76,30.4-101.76m3.15-9.64l-6.65,4.76c-2.11,1.51-51.57,37.35-51.63,74.5-.03,14.37,7.11,26.82,21.22,37l1.38.99,1.7.12c.11,0,.71.05,1.67.05,5.32,0,23.6-1.27,35.42-17.58,13.54-18.68,13.35-49.66-.55-92.08l-2.55-7.77h0Z"/>
          </g>
          <g>
            <path class="cls-7" d="m281.18,216.22c-6.68,0-13.85-1.71-21.31-5.08l-.77-.35-.48-.7c-.47-.7-11.45-17.3-3.59-36.65,8.45-20.8,34.88-35.94,78.56-45.01l4-.83-.41,4.07c-.35,3.45-9.03,84.56-56.01,84.56Z"/>
            <path class="cls-6" d="m334.2,131.36s-8.22,81.86-53.02,81.86c-6.01,0-12.68-1.47-20.07-4.81,0,0-36.67-54.25,73.09-77.04m6.79-7.54l-8.01,1.66c-44.72,9.29-71.88,25.04-80.73,46.82-8.46,20.82,3.38,38.71,3.89,39.46l.95,1.41,1.55.7c7.85,3.55,15.44,5.34,22.54,5.34,49.66,0,58.63-83.69,58.99-87.26l.82-8.14h0Z"/>
          </g>
          <g>
            <path class="cls-7" d="m258.73,279.87c-6.68,0-13.85-1.71-21.31-5.08l-.77-.35-.48-.7c-.47-.7-11.45-17.3-3.59-36.65,8.45-20.8,34.88-35.94,78.56-45.01l4-.83-.41,4.07c-.35,3.45-9.03,84.56-56.01,84.56Z"/>
            <path class="cls-6" d="m311.75,195.01s-8.22,81.86-53.02,81.86c-6.01,0-12.68-1.47-20.07-4.81,0,0-36.67-54.25,73.09-77.04m6.79-7.54l-8.01,1.66c-44.72,9.29-71.88,25.04-80.73,46.82-8.46,20.82,3.38,38.71,3.89,39.46l.95,1.41,1.55.7c7.85,3.55,15.44,5.34,22.54,5.34,49.66,0,58.63-83.69,58.99-87.26l.82-8.14h0Z"/>
          </g>
          <g>
            <path class="cls-7" d="m245.78,207.15c-16.24-2.08-27.7-9.1-34.05-20.84-16.94-31.34,8.78-85.1,9.89-87.37l1.79-3.68,2.97,2.81c32.44,30.63,47.01,57.38,43.29,79.52-3.45,20.6-21.51,28.98-22.28,29.33l-.77.35-.84-.11Z"/>
            <path class="cls-6" d="m224.32,100.25c81.52,76.96,21.84,103.93,21.84,103.93-68.05-8.74-21.84-103.93-21.84-103.93m-1.83-9.98l-3.57,7.36c-1.13,2.33-27.49,57.43-9.83,90.11,6.84,12.64,19.05,20.18,36.3,22.39l1.69.22,1.55-.7c.83-.37,20.28-9.4,24-31.56,3.89-23.19-10.98-50.84-44.19-82.2l-5.95-5.61h0Z"/>
          </g>
          <g>
            <path class="cls-7" d="m227.43,271.96c-16.24-2.08-27.7-9.1-34.05-20.84-16.94-31.34,8.78-85.1,9.89-87.37l1.79-3.68,2.97,2.81c32.44,30.63,47.01,57.38,43.29,79.52-3.45,20.6-21.51,28.98-22.28,29.33l-.77.35-.84-.11Z"/>
            <path class="cls-6" d="m205.97,165.05c81.52,76.96,21.84,103.93,21.84,103.93-68.05-8.74-21.84-103.93-21.84-103.93m-1.83-9.98l-3.57,7.36c-1.13,2.33-27.49,57.43-9.83,90.11,6.84,12.64,19.05,20.18,36.3,22.39l1.69.22,1.55-.7c.83-.37,20.28-9.4,24-31.56,3.89-23.19-10.98-50.84-44.19-82.2l-5.95-5.61h0Z"/>
          </g>
          <g>
            <path class="cls-9" d="m249.13,216.33c-.93,0-1.45-.04-1.45-.04l-.84-.07-.7-.49c-13.28-9.58-20-21.21-19.97-34.56.06-35.62,48.33-70.59,50.38-72.06l3.32-2.38,1.27,3.88c13.59,41.45,13.91,71.53.97,89.39-10.98,15.16-28.02,16.34-32.99,16.34Z"/>
            <path class="cls-6" d="m278.29,111.54c32.04,97.77-20.33,101.79-29.16,101.79-.79,0-1.23-.03-1.23-.03-55.63-40.15,30.4-101.76,30.4-101.76m3.15-9.64l-6.65,4.76c-2.11,1.51-51.57,37.35-51.63,74.5-.03,14.37,7.11,26.82,21.22,37l1.38.99,1.7.12c.11,0,.71.05,1.67.05,5.32,0,23.6-1.27,35.42-17.58,13.54-18.68,13.35-49.66-.55-92.08l-2.55-7.77h0Z"/>
          </g>
          <g>
            <path class="cls-9" d="m232.87,273.76c-.93,0-1.45-.04-1.45-.04l-.84-.07-.7-.49c-13.28-9.58-20-21.21-19.97-34.56.06-35.62,48.33-70.59,50.38-72.06l3.32-2.38,1.27,3.88c13.59,41.45,13.91,71.53.97,89.39-10.98,15.16-28.02,16.34-32.99,16.34Z"/>
            <path class="cls-6" d="m262.03,168.97c32.04,97.77-20.33,101.79-29.16,101.79-.79,0-1.23-.03-1.23-.03-55.63-40.15,30.4-101.76,30.4-101.76m3.15-9.64l-6.65,4.76c-2.11,1.51-51.57,37.35-51.63,74.5-.03,14.37,7.11,26.82,21.22,37l1.38.99,1.7.12c.11,0,.71.05,1.67.05,5.32,0,23.6-1.27,35.42-17.58,13.54-18.68,13.35-49.66-.55-92.08l-2.55-7.77h0Z"/>
          </g>
        </g>
        <rect class="cls-8" x="139.13" y="444.69" width="80.52" height="21.88" transform="translate(131.42 -31.69) rotate(15.87)"/>
        <path class="cls-5" d="m139.13,453.6l18.25,71.38s2.61,6.06,7.34,2.08l50.46-51.36"/>
        <g>
          <polygon class="cls-10" points="210.41 467.92 201.63 469.93 193.89 463.34 184.24 464.98 178.37 458.88 168.82 460.61 162.68 454.42 153.97 456.38 147.9 450.26 140.01 451.71 193.16 264.07 268.62 285.43 215.62 473.25 210.41 467.92"/>
          <path class="cls-2" d="m194.54,266.53l71.61,20.28-51.51,182.57-2.01-2.06-1.57-1.6-2.18.5-6.71,1.53-6.27-5.34-1.42-1.21-1.84.31-7.69,1.31-4.39-4.56-1.49-1.55-2.11.38-7.46,1.36-4.62-4.66-1.56-1.57-2.16.49-6.55,1.48-4.54-4.58-1.49-1.5-2.08.38-3.69.68,51.72-182.63m-2.76-4.94l-54.5,192.43.47.14,9.48-1.75,6.1,6.16,8.71-1.96,6.1,6.16,9.53-1.73,5.86,6.09,9.78-1.66,7.79,6.64,8.66-1.98,6,6.13.84.86,54.47-193.06-79.3-22.46h0Z"/>
        </g>
        <path class="cls-2" d="m151.18,503.05l28.64,8.11-15.51,15.2s-4.63,4.01-7.34-2.08l-5.8-21.23Z"/>
        <rect class="cls-2" x="213.09" y="475.47" width="3.86" height=".56" transform="translate(381.35 -19.13) rotate(42.9)"/>
        <g>
          <path class="cls-4" d="m147.31,395.48c-4.21,2.35-1.57,5.55-1.57,5.55l6.07,1.72,79.44,22.49,5.12,1.45c5.24-1.38,1.57-5.55,1.57-5.55l-5.12-1.45-79.44-22.49-6.07-1.71Z"/>
          <path class="cls-4" d="m234.21,414.08l-79.26-22.44-6.07-1.72c-4.21,2.35-1.57,5.55-1.57,5.55l6.07,1.72,79.44,22.49,5.12,1.45c5.24-1.38,1.57-5.55,1.57-5.55l-5.3-1.5Z"/>
          <path class="cls-4" d="m259.11,346.52c5.24-1.38,1.57-5.55,1.57-5.55l-5.3-1.5-79.3-22.45-6.03-1.71c-4.21,2.35-1.57,5.55-1.57,5.55l6.03,1.71,79.3,22.45,5.3,1.5Z"/>
          <path class="cls-4" d="m166.91,326.42l6.03,1.71,79.3,22.45,5.3,1.5c5.24-1.38,1.57-5.55,1.57-5.55l-5.3-1.5-79.3-22.45-6.03-1.7c-4.21,2.35-1.57,5.55-1.57,5.55Z"/>
        </g>
      </g>
    </g>
  </g>
</svg>