<?xml version="1.0" encoding="UTF-8"?>
<svg xmlns="http://www.w3.org/2000/svg" xmlns:xlink="http://www.w3.org/1999/xlink" viewBox="0 0 991.77 524.87">
  <defs>
    <style>
      .cls-1, .cls-2, .cls-3 {
        stroke: #000;
      }

      .cls-1, .cls-2, .cls-4 {
        stroke-miterlimit: 10;
      }

      .cls-1, .cls-3, .cls-4 {
        fill: none;
        stroke-width: 4px;
      }

      .cls-5 {
        fill: #fff;
      }

      .cls-2 {
        stroke-width: .25px;
      }

      .cls-6 {
        isolation: isolate;
      }

      .cls-3 {
        stroke-linejoin: bevel;
      }

      .cls-7 {
        mask: url(#mask);
      }

      .cls-4 {
        stroke: #fff;
      }

      .cls-8 {
        filter: url(#luminosity-invert-noclip);
      }
    </style>
    <filter id="luminosity-invert-noclip" x="-.15" y="256.48" width="134.11" height="215.91" color-interpolation-filters="sRGB" filterUnits="userSpaceOnUse">
      <feColorMatrix result="cm" values="-1 0 0 0 1 0 -1 0 0 1 0 0 -1 0 1 0 0 0 1 0"/>
      <feFlood flood-color="#fff" result="bg"/>
      <feBlend in="cm" in2="bg"/>
    </filter>
    <mask id="mask" x="-.15" y="256.48" width="134.11" height="215.91" maskUnits="userSpaceOnUse">
      <g class="cls-8">
        <g>
          <line class="cls-4" x1="37.23" y1="317.61" x2="116.53" y2="340.06"/>
          <line class="cls-4" x1="38.8" y1="312.06" x2="118.1" y2="334.51"/>
          <line class="cls-4" x1="35.66" y1="323.17" x2="114.95" y2="345.61"/>
          <line class="cls-4" x1="37.23" y1="317.61" x2="116.53" y2="340.06"/>
          <line class="cls-4" x1="17.67" y1="386.68" x2="97.16" y2="409.18"/>
          <line class="cls-4" x1="93.97" y1="420.27" x2="14.52" y2="397.78"/>
          <line class="cls-4" x1="16.1" y1="392.23" x2="95.54" y2="414.72"/>
        </g>
      </g>
    </mask>
  </defs>
  <g class="cls-6">
    <g id="_レイヤー_6" data-name="レイヤー 6">
      <g>
        <g>
          <path d="m127.95,121.61c-15.67-4.76-25.79-13.59-30.1-26.23-11.48-33.72,22.84-82.44,24.31-84.5l2.37-3.33,2.46,3.26c26.88,35.6,36.79,64.41,29.44,85.62-6.84,19.74-26.04,24.99-26.85,25.2l-.82.22-.81-.25Z"/>
          <path class="cls-5" d="m124.6,12.63c67.55,89.47,4.22,106.12,4.22,106.12-65.64-19.95-4.22-106.12-4.22-106.12m-.14-10.14l-4.75,6.66c-1.5,2.11-36.68,52.05-24.71,87.21,4.63,13.61,15.42,23.07,32.06,28.13l1.63.49,1.64-.43c.88-.23,21.57-5.89,28.92-27.12,7.7-22.21-2.36-51.96-29.88-88.41l-4.93-6.53h0Z"/>
        </g>
        <g>
          <path d="m70.7,125.6c-16.24-2.08-27.7-9.1-34.05-20.85-16.94-31.34,8.78-85.1,9.89-87.37l1.79-3.68,2.97,2.81c32.44,30.63,47.01,57.38,43.29,79.52-3.45,20.6-21.51,28.98-22.28,29.33l-.77.35-.84-.11Z"/>
          <path class="cls-5" d="m49.24,18.7c81.52,76.96,21.84,103.93,21.84,103.93C3.03,113.89,49.24,18.7,49.24,18.7m-1.83-9.98l-3.57,7.36c-1.13,2.33-27.49,57.43-9.83,90.11,6.84,12.64,19.05,20.18,36.3,22.39l1.69.22,1.55-.7c.83-.37,20.28-9.4,24-31.56,3.89-23.19-10.98-50.84-44.19-82.2l-5.95-5.61h0Z"/>
        </g>
        <g>
          <path d="m157.58,127.88c-4.59,0-9.54-.69-14.7-2.04l-.82-.22-.59-.61c-.58-.61-14.17-15.15-9.65-35.54,4.86-21.91,28.4-41.25,69.96-57.47l3.81-1.49.27,4.08c.15,2.28,3.5,56.19-19.73,81.04-7.6,8.13-17.21,12.25-28.56,12.25Z"/>
          <path class="cls-5" d="m202.88,34.79s6.07,90.09-45.3,90.09c-4.24,0-8.87-.61-13.93-1.94,0,0-45.2-47.38,59.23-88.15m5.44-8.56l-7.62,2.97c-42.55,16.61-66.71,36.67-71.8,59.62-4.87,21.94,9.78,37.61,10.41,38.26l1.17,1.23,1.64.43c5.41,1.42,10.61,2.14,15.46,2.14,12.22,0,22.56-4.44,30.75-13.2,24.11-25.79,20.69-80.96,20.53-83.29l-.55-8.16h0Z"/>
        </g>
        <g>
          <path d="m212.42,163.32c-6.68,0-13.85-1.71-21.31-5.08l-.77-.35-.48-.7c-.47-.7-11.45-17.3-3.59-36.65,8.45-20.8,34.88-35.94,78.56-45.01l4-.83-.41,4.07c-.35,3.45-9.03,84.56-56.01,84.56Z"/>
          <path class="cls-5" d="m265.44,78.46s-8.22,81.86-53.02,81.86c-6.01,0-12.68-1.47-20.07-4.81,0,0-36.67-54.25,73.09-77.04m6.79-7.54l-8.01,1.66c-44.72,9.29-71.88,25.04-80.73,46.82-8.46,20.82,3.38,38.71,3.89,39.46l.95,1.41,1.55.7c7.85,3.55,15.44,5.34,22.54,5.34,49.66,0,58.63-83.69,58.99-87.26l.82-8.14h0Z"/>
        </g>
        <g>
          <path d="m164.73,153.36c-6.68,0-13.85-1.71-21.31-5.08l-.77-.35-.48-.7c-.47-.7-11.45-17.3-3.59-36.65,8.45-20.8,34.88-35.94,78.56-45.01l4-.83-.41,4.07c-.35,3.45-9.03,84.56-56.01,84.56Z"/>
          <path class="cls-5" d="m217.75,68.5s-8.22,81.86-53.02,81.86c-6.01,0-12.68-1.47-20.07-4.81,0,0-36.67-54.25,73.09-77.04m6.79-7.54l-8.01,1.66c-44.72,9.29-71.88,25.04-80.73,46.82-8.46,20.82,3.38,38.71,3.89,39.46l.95,1.41,1.55.7c7.85,3.55,15.44,5.34,22.54,5.34,49.66,0,58.63-83.69,58.99-87.26l.82-8.14h0Z"/>
        </g>
        <g>
          <path d="m187.49,220.06c-6.68,0-13.85-1.71-21.31-5.08l-.77-.35-.48-.7c-.47-.7-11.45-17.3-3.59-36.65,8.45-20.8,34.88-35.94,78.56-45.01l4-.83-.41,4.07c-.35,3.45-9.03,84.56-56.01,84.56Z"/>
          <path class="cls-5" d="m240.51,135.2s-8.22,81.86-53.02,81.86c-6.01,0-12.68-1.47-20.07-4.81,0,0-36.67-54.25,73.09-77.04m6.79-7.54l-8.01,1.66c-44.72,9.29-71.88,25.04-80.73,46.82-8.46,20.82,3.38,38.71,3.89,39.46l.95,1.41,1.55.7c7.85,3.55,15.44,5.34,22.54,5.34,49.66,0,58.63-83.69,58.99-87.26l.82-8.14h0Z"/>
        </g>
        <g>
          <path d="m64.2,189.65c-16.24-2.08-27.7-9.1-34.05-20.85-16.94-31.34,8.78-85.1,9.89-87.37l1.79-3.68,2.97,2.81c32.44,30.63,47.01,57.38,43.29,79.52-3.45,20.6-21.51,28.98-22.28,29.33l-.77.35-.84-.11Z"/>
          <path class="cls-5" d="m42.74,82.74c81.52,76.96,21.84,103.93,21.84,103.93-68.05-8.74-21.84-103.93-21.84-103.93m-1.83-9.98l-3.57,7.36c-1.13,2.33-27.49,57.43-9.83,90.11,6.84,12.64,19.05,20.18,36.3,22.39l1.69.22,1.55-.7c.83-.37,20.28-9.4,24-31.56,3.89-23.19-10.98-50.84-44.19-82.2l-5.95-5.61h0Z"/>
        </g>
        <g>
          <path d="m138.67,279.79c-6.68,0-13.85-1.71-21.31-5.08l-.77-.35-.48-.7c-.47-.7-11.45-17.3-3.59-36.65,8.45-20.8,34.88-35.94,78.56-45.01l4-.83-.41,4.07c-.35,3.45-9.03,84.56-56.01,84.56Z"/>
          <path class="cls-5" d="m191.7,194.93s-8.22,81.86-53.02,81.86c-6.01,0-12.68-1.47-20.07-4.81,0,0-36.67-54.25,73.09-77.04m6.79-7.54l-8.01,1.66c-44.72,9.29-71.88,25.04-80.73,46.82-8.46,20.82,3.38,38.71,3.89,39.46l.95,1.41,1.55.7c7.85,3.55,15.44,5.34,22.54,5.34,49.66,0,58.63-83.69,58.99-87.26l.82-8.14h0Z"/>
        </g>
        <g>
          <path d="m69.64,261.19c-16.24-2.08-27.7-9.1-34.05-20.84-16.94-31.34,8.78-85.1,9.89-87.37l1.79-3.68,2.97,2.81c32.44,30.63,47.01,57.38,43.29,79.52-3.45,20.6-21.51,28.98-22.28,29.33l-.77.35-.84-.11Z"/>
          <path class="cls-5" d="m48.18,154.29c81.52,76.96,21.84,103.93,21.84,103.93-68.05-8.74-21.84-103.93-21.84-103.93m-1.83-9.98l-3.57,7.36c-1.13,2.33-27.49,57.43-9.83,90.11,6.84,12.64,19.05,20.18,36.3,22.39l1.69.22,1.55-.7c.83-.37,20.28-9.4,24-31.56,3.89-23.19-10.98-50.84-44.19-82.2l-5.95-5.61h0Z"/>
        </g>
        <g>
          <path d="m117.96,137.52c-16.24-2.08-27.7-9.1-34.05-20.85-16.94-31.34,8.78-85.1,9.89-87.37l1.79-3.68,2.97,2.81c32.44,30.63,47.01,57.38,43.29,79.52-3.45,20.6-21.51,28.98-22.28,29.33l-.77.35-.84-.11Z"/>
          <path class="cls-5" d="m96.5,30.62c81.52,76.96,21.84,103.93,21.84,103.93-68.05-8.74-21.84-103.93-21.84-103.93m-1.83-9.98l-3.57,7.36c-1.13,2.33-27.49,57.43-9.83,90.11,6.84,12.64,19.05,20.18,36.3,22.39l1.69.22,1.55-.7c.83-.37,20.28-9.4,24-31.56,3.89-23.19-10.98-50.84-44.19-82.2l-5.95-5.61h0Z"/>
        </g>
        <g>
          <path d="m128.58,152.31c-.93,0-1.45-.04-1.45-.04l-.84-.06-.7-.49c-13.28-9.58-20-21.21-19.97-34.56.06-35.62,48.33-70.59,50.38-72.06l3.32-2.38,1.27,3.89c13.59,41.45,13.91,71.53.97,89.39-10.98,15.16-28.02,16.33-32.98,16.33h0Z"/>
          <path class="cls-5" d="m157.74,47.52c32.04,97.77-20.33,101.79-29.16,101.79-.79,0-1.23-.03-1.23-.03-55.63-40.15,30.4-101.76,30.4-101.76m3.15-9.64l-6.65,4.76c-2.11,1.51-51.57,37.35-51.63,74.5-.03,14.37,7.11,26.82,21.22,37l1.38.99,1.7.12c.11,0,.71.05,1.67.05,5.32,0,23.6-1.27,35.42-17.58,13.54-18.68,13.35-49.66-.55-92.08l-2.55-7.77h0Z"/>
        </g>
        <g>
          <path d="m143.9,211.26c-6.68,0-13.85-1.71-21.31-5.08l-.77-.35-.48-.7c-.47-.7-11.45-17.3-3.59-36.65,8.45-20.8,34.88-35.94,78.56-45.01l4-.83-.41,4.07c-.35,3.45-9.03,84.56-56.01,84.56Z"/>
          <path class="cls-5" d="m196.92,126.4s-8.22,81.86-53.02,81.86c-6.01,0-12.68-1.47-20.07-4.81,0,0-36.67-54.25,73.09-77.04m6.79-7.54l-8.01,1.66c-44.72,9.29-71.88,25.04-80.73,46.82-8.46,20.82,3.38,38.71,3.89,39.46l.95,1.41,1.55.7c7.85,3.55,15.44,5.34,22.54,5.34,49.66,0,58.63-83.69,58.99-87.26l.82-8.14h0Z"/>
        </g>
        <g>
          <path d="m121.45,274.91c-6.68,0-13.85-1.71-21.31-5.08l-.77-.35-.48-.7c-.47-.7-11.45-17.3-3.59-36.65,8.45-20.8,34.88-35.94,78.56-45.01l4-.83-.41,4.07c-.35,3.45-9.03,84.56-56.01,84.56Z"/>
          <path class="cls-5" d="m174.47,190.05s-8.22,81.86-53.02,81.86c-6.01,0-12.68-1.47-20.07-4.81,0,0-36.67-54.25,73.09-77.04m6.79-7.54l-8.01,1.66c-44.72,9.29-71.88,25.04-80.73,46.82-8.46,20.82,3.38,38.71,3.89,39.46l.95,1.41,1.55.7c7.85,3.55,15.44,5.34,22.54,5.34,49.66,0,58.63-83.69,58.99-87.26l.82-8.14h0Z"/>
        </g>
        <g>
          <path d="m108.5,202.19c-16.24-2.08-27.7-9.1-34.05-20.84-16.94-31.34,8.78-85.1,9.89-87.37l1.79-3.68,2.97,2.81c32.44,30.63,47.01,57.38,43.29,79.52-3.45,20.6-21.51,28.98-22.28,29.33l-.77.35-.84-.11Z"/>
          <path class="cls-5" d="m87.04,95.29c81.52,76.96,21.84,103.93,21.84,103.93-68.05-8.74-21.84-103.93-21.84-103.93m-1.83-9.98l-3.57,7.36c-1.13,2.33-27.49,57.43-9.83,90.11,6.84,12.64,19.05,20.18,36.3,22.39l1.69.22,1.55-.7c.83-.37,20.28-9.4,24-31.56,3.89-23.19-10.98-50.84-44.19-82.2l-5.95-5.61h0Z"/>
        </g>
        <g>
          <path d="m90.15,267c-16.24-2.08-27.7-9.1-34.05-20.84-16.94-31.34,8.78-85.1,9.89-87.37l1.79-3.68,2.97,2.81c32.44,30.63,47.01,57.38,43.29,79.52-3.45,20.6-21.51,28.98-22.28,29.33l-.77.35-.84-.11Z"/>
          <path class="cls-5" d="m68.69,160.09c81.52,76.96,21.84,103.93,21.84,103.93-68.05-8.74-21.84-103.93-21.84-103.93m-1.83-9.98l-3.57,7.36c-1.13,2.33-27.49,57.43-9.83,90.11,6.84,12.64,19.05,20.18,36.3,22.39l1.69.22,1.55-.7c.83-.37,20.28-9.4,24-31.56,3.89-23.19-10.98-50.84-44.19-82.2l-5.95-5.61h0Z"/>
        </g>
        <g>
          <path d="m111.85,211.37c-.93,0-1.45-.04-1.45-.04l-.84-.06-.7-.5c-13.28-9.58-20-21.21-19.97-34.56.06-35.62,48.33-70.59,50.38-72.06l3.32-2.38,1.27,3.89c13.59,41.45,13.91,71.53.97,89.39-10.98,15.16-28.02,16.33-32.98,16.33h0Z"/>
          <path class="cls-5" d="m141.02,106.58c32.04,97.77-20.33,101.79-29.16,101.79-.79,0-1.23-.03-1.23-.03-55.63-40.15,30.4-101.76,30.4-101.76m3.15-9.64l-6.65,4.76c-2.11,1.51-51.57,37.35-51.63,74.5-.03,14.37,7.11,26.82,21.22,37l1.38.99,1.7.12c.11,0,.71.05,1.67.05,5.32,0,23.6-1.27,35.42-17.58,13.54-18.68,13.35-49.66-.55-92.08l-2.55-7.77h0Z"/>
        </g>
        <g>
          <path d="m95.59,268.8c-.93,0-1.45-.04-1.45-.04l-.84-.07-.7-.49c-13.28-9.58-20-21.21-19.97-34.56.06-35.62,48.33-70.59,50.38-72.06l3.32-2.38,1.27,3.89c13.59,41.45,13.91,71.53.97,89.39-10.98,15.16-28.02,16.34-32.99,16.34Z"/>
          <path class="cls-5" d="m124.75,164.01c32.04,97.77-20.33,101.79-29.16,101.79-.79,0-1.23-.03-1.23-.03-55.63-40.15,30.4-101.76,30.4-101.76m3.15-9.64l-6.65,4.76c-2.11,1.51-51.57,37.35-51.63,74.5-.03,14.37,7.11,26.82,21.22,37l1.38.99,1.7.12c.11,0,.71.05,1.67.05,5.32,0,23.6-1.27,35.42-17.58,13.54-18.68,13.35-49.66-.55-92.08l-2.55-7.77h0Z"/>
        </g>
        <path class="cls-1" d="m1.96,448.6l16.58,70.84s2.61,6.06,7.34,2.08l52.08-50.81"/>
        <g class="cls-7">
          <polygon class="cls-2" points="79.33 472.15 133.8 279.09 54.5 256.63 0 449.07 .47 449.21 9.95 447.46 16.05 453.62 24.76 451.65 30.86 457.81 40.39 456.08 46.25 462.17 56.03 460.5 63.82 467.14 72.48 465.16 78.49 471.29 79.33 472.15"/>
        </g>
        <path d="m13.9,498.09l28.64,8.11-15.51,15.2s-4.63,4.01-7.34-2.08l-5.8-21.23Z"/>
        <g>
          <path class="cls-3" d="m38.8,312.06l-6.03-1.71c-4.21,2.35-1.57,5.55-1.57,5.55l6.03,1.71"/>
          <path class="cls-3" d="m116.53,340.06l5.3,1.5c5.24-1.38,1.57-5.55,1.57-5.55l-5.3-1.5"/>
          <path class="cls-3" d="m116.53,340.06l5.3,1.5s3.67,4.17-1.57,5.55l-5.3-1.5"/>
          <path class="cls-3" d="m37.23,317.61l-6.03-1.7c-4.21,2.35-1.57,5.55-1.57,5.55l6.03,1.71"/>
          <path class="cls-3" d="m95.54,414.72l5.12,1.45c5.24-1.38,1.57-5.55,1.57-5.55l-5.13-1.45"/>
          <path class="cls-3" d="m17.67,386.68l-6.07-1.72c-4.21,2.35-1.57,5.55-1.57,5.55l6.07,1.72"/>
          <path class="cls-3" d="m16.1,392.23l-6.07-1.71c-4.21,2.35-1.57,5.55-1.57,5.55l6.07,1.72"/>
          <path class="cls-3" d="m95.54,414.72l5.12,1.45s3.67,4.17-1.57,5.55l-5.12-1.45"/>
        </g>
        <path d="m272.63,467.29v-251.95h62.89v251.95h-62.89Zm159.38,0h-83.98v-62.89h126.17l-42.19,62.89Z"/>
        <path d="m487.09,316.12v-31.64c0-8.33,3.12-15.62,9.38-21.88s13.67-9.38,22.27-9.38h125.78c8.85,0,16.34,3.06,22.46,9.18,6.12,6.12,9.18,13.48,9.18,22.07v31.64h-189.06Zm157.42,151.17h-125.78c-8.59,0-16.02-3.12-22.27-9.38s-9.38-13.67-9.38-22.27v-107.03h63.28v75.78h62.89v-75.78h62.89v107.03c0,8.59-3.12,16.02-9.38,22.27s-13.67,9.38-22.27,9.38Z"/>
        <path d="m701.15,467.29v-251.95h63.28v251.95h-63.28Zm133.2,0l-57.42-88.28v-62.11l41.02-63.67h75l-61.33,94.53,77.73,119.53h-75Z"/>
        <path d="m928.49,227.84v-50.39h63.28v50.39h-63.28Zm0,239.45v-214.06h63.28v214.06h-63.28Z"/>
      </g>
    </g>
  </g>
</svg>