<?xml version="1.0" encoding="UTF-8"?>
<svg xmlns="http://www.w3.org/2000/svg" viewBox="0 0 991.77 524.87">
  <defs>
    <style>
      .cls-1 {
        stroke-miterlimit: 10;
      }

      .cls-1, .cls-2 {
        fill: none;
        stroke: #000;
        stroke-width: 4px;
      }

      .cls-3 {
        fill: #fff;
      }

      .cls-4 {
        isolation: isolate;
      }

      .cls-2 {
        stroke-linejoin: bevel;
      }

      .cls-5 {
        mix-blend-mode: multiply;
      }
    </style>
  </defs>
  <g class="cls-4">
    <g id="_レイヤー_7" data-name="レイヤー 7" class="cls-5">
      <g>
        <path class="cls-3" d="m128.33,120.64c-15.34-4.66-25.25-13.27-29.44-25.59-11.32-33.24,22.72-81.56,24.18-83.6l1.58-2.22,1.64,2.18c26.67,35.32,36.52,63.82,29.29,84.69-6.67,19.24-25.37,24.36-26.16,24.56l-.55.14-.54-.16Z"/>
        <path d="m124.69,12.61c67.55,89.47,4.22,106.12,4.22,106.12-65.64-19.95-4.22-106.12-4.22-106.12m-.09-6.76l-3.16,4.44c-1.48,2.07-36.09,51.2-24.44,85.4,4.41,12.96,14.76,22,30.75,26.86l1.08.33,1.1-.29c.84-.22,20.53-5.61,27.54-25.84,7.46-21.54-2.49-50.66-29.59-86.55l-3.28-4.35h0Z"/>
      </g>
      <g>
        <path class="cls-3" d="m70.92,124.6c-15.9-2.04-27.11-8.88-33.29-20.33-16.7-30.89,8.81-84.2,9.91-86.46l1.19-2.45,1.98,1.87c32.18,30.38,46.65,56.84,42.99,78.63-3.37,20.08-20.96,28.24-21.7,28.58l-.52.23-.56-.07Z"/>
        <path d="m49.33,18.68c81.52,76.96,21.84,103.93,21.84,103.93C3.12,113.88,49.33,18.68,49.33,18.68m-1.22-6.65l-2.38,4.9c-1.11,2.29-27.05,56.5-9.87,88.28,6.51,12.05,18.22,19.23,34.8,21.36l1.12.14,1.03-.47c.79-.36,19.31-8.95,22.85-30.07,3.77-22.49-10.9-49.54-43.59-80.41l-3.96-3.74h0Z"/>
      </g>
      <g>
        <path class="cls-3" d="m157.67,126.87c-4.51,0-9.37-.68-14.44-2.01l-.55-.14-.39-.41c-.57-.59-13.81-14.76-9.4-34.63,4.79-21.57,28.12-40.66,69.35-56.76l2.54-.99.18,2.72c.15,2.26,3.47,55.75-19.47,80.29-7.4,7.92-16.77,11.93-27.83,11.93Z"/>
        <path d="m202.97,34.78s6.07,90.09-45.3,90.09c-4.24,0-8.87-.61-13.93-1.94,0,0-45.2-47.38,59.23-88.15m3.62-5.71l-5.08,1.98c-41.89,16.35-65.63,35.93-70.57,58.19-4.64,20.91,9.31,35.82,9.9,36.45l.78.82,1.1.29c5.24,1.38,10.27,2.07,14.95,2.07,11.64,0,21.49-4.23,29.29-12.57,23.53-25.17,20.16-79.49,20-81.79l-.37-5.44h0Z"/>
      </g>
      <g>
        <path class="cls-3" d="m212.51,162.3c-6.53,0-13.56-1.68-20.89-4.99l-.52-.23-.32-.47c-.46-.68-11.16-16.85-3.49-35.72,8.31-20.47,34.5-35.41,77.84-44.41l2.67-.55-.27,2.71c-.02.21-2.17,20.96-9.83,41.43-10.33,27.63-25.96,42.23-45.19,42.23Z"/>
        <path d="m265.53,78.45s-8.22,81.86-53.02,81.86c-6.01,0-12.68-1.47-20.07-4.81,0,0-36.67-54.25,73.09-77.04m4.52-5.02l-5.34,1.11c-44.03,9.14-70.7,24.49-79.28,45.61-8.06,19.84,3.21,36.87,3.69,37.59l.63.94,1.03.47c7.59,3.43,14.9,5.17,21.72,5.17,20.13,0,36.41-15.05,47.06-43.53,7.75-20.71,9.86-41.07,9.94-41.93l.54-5.42h0Z"/>
      </g>
      <g>
        <path class="cls-3" d="m164.82,152.34c-6.53,0-13.56-1.68-20.9-4.99l-.52-.23-.32-.47c-.46-.68-11.16-16.85-3.49-35.72,8.31-20.47,34.5-35.41,77.84-44.41l2.67-.55-.27,2.71c-.02.21-2.17,20.96-9.83,41.43-10.33,27.63-25.96,42.23-45.19,42.23Z"/>
        <path d="m217.84,68.49s-8.22,81.86-53.02,81.86c-6.01,0-12.68-1.47-20.07-4.81,0,0-36.67-54.25,73.09-77.04m4.52-5.02l-5.34,1.11c-44.03,9.14-70.7,24.49-79.28,45.61-8.06,19.84,3.21,36.87,3.69,37.59l.63.94,1.03.47c7.59,3.43,14.9,5.17,21.72,5.17,20.13,0,36.41-15.05,47.06-43.53,7.75-20.71,9.86-41.07,9.94-41.93l.54-5.42h0Z"/>
      </g>
      <g>
        <path class="cls-3" d="m187.58,219.05c-6.53,0-13.56-1.68-20.89-4.99l-.52-.23-.32-.47c-.46-.68-11.16-16.85-3.49-35.72,8.31-20.47,34.5-35.41,77.84-44.41l2.67-.55-.27,2.71c-.02.21-2.17,20.96-9.83,41.43-10.33,27.63-25.96,42.23-45.19,42.23Z"/>
        <path d="m240.6,135.19s-8.22,81.86-53.02,81.86c-6.01,0-12.68-1.47-20.07-4.81,0,0-36.67-54.25,73.09-77.04m4.52-5.02l-5.34,1.11c-44.03,9.14-70.7,24.49-79.28,45.61-8.06,19.84,3.21,36.87,3.69,37.59l.63.94,1.03.47c7.59,3.43,14.9,5.17,21.72,5.17,20.13,0,36.41-15.05,47.06-43.53,7.75-20.71,9.86-41.07,9.94-41.93l.54-5.42h0Z"/>
      </g>
      <g>
        <path class="cls-3" d="m64.42,188.64c-15.9-2.04-27.11-8.88-33.29-20.33-16.7-30.89,8.81-84.2,9.91-86.46l1.19-2.45,1.98,1.87c32.18,30.38,46.65,56.84,42.99,78.63-3.37,20.08-20.96,28.24-21.7,28.58l-.52.23-.56-.07Z"/>
        <path d="m42.84,82.73c81.52,76.96,21.84,103.93,21.84,103.93-68.05-8.74-21.84-103.93-21.84-103.93m-1.22-6.65l-2.38,4.9c-1.11,2.29-27.05,56.5-9.87,88.28,6.51,12.05,18.22,19.23,34.8,21.36l1.12.14,1.03-.47c.79-.36,19.31-8.95,22.85-30.07,3.77-22.49-10.9-49.54-43.59-80.41l-3.96-3.74h0Z"/>
      </g>
      <g>
        <path class="cls-3" d="m138.77,278.77c-6.53,0-13.56-1.68-20.9-4.99l-.52-.23-.32-.47c-.46-.68-11.16-16.85-3.49-35.72,8.31-20.47,34.5-35.41,77.84-44.41l2.67-.55-.27,2.71c-.02.21-2.17,20.96-9.83,41.43-10.33,27.63-25.96,42.23-45.19,42.23Z"/>
        <path d="m191.79,194.91s-8.22,81.86-53.02,81.86c-6.01,0-12.68-1.47-20.07-4.81,0,0-36.67-54.25,73.09-77.04m4.52-5.02l-5.34,1.11c-44.03,9.14-70.7,24.49-79.28,45.61-8.06,19.84,3.21,36.87,3.69,37.59l.63.94,1.03.47c7.59,3.43,14.9,5.17,21.72,5.17,20.13,0,36.41-15.05,47.06-43.53,7.75-20.71,9.86-41.07,9.94-41.93l.54-5.42h0Z"/>
      </g>
      <g>
        <path class="cls-3" d="m69.86,260.19c-15.9-2.04-27.11-8.88-33.29-20.33-16.7-30.89,8.81-84.2,9.91-86.46l1.19-2.45,1.98,1.87c32.18,30.38,46.65,56.84,42.99,78.63-3.37,20.08-20.96,28.24-21.7,28.58l-.52.23-.56-.07Z"/>
        <path d="m48.27,154.27c81.52,76.96,21.84,103.93,21.84,103.93-68.05-8.74-21.84-103.93-21.84-103.93m-1.22-6.65l-2.38,4.9c-1.11,2.29-27.05,56.5-9.87,88.28,6.51,12.05,18.22,19.23,34.8,21.36l1.12.14,1.03-.47c.79-.36,19.31-8.95,22.85-30.07,3.77-22.49-10.9-49.54-43.59-80.41l-3.96-3.74h0Z"/>
      </g>
      <g>
        <path class="cls-3" d="m118.18,136.52c-15.9-2.04-27.1-8.88-33.29-20.33-16.7-30.89,8.81-84.2,9.91-86.46l1.19-2.45,1.98,1.87c32.18,30.38,46.65,56.84,42.99,78.63-3.37,20.08-20.96,28.24-21.7,28.58l-.52.23-.56-.07Z"/>
        <path d="m96.59,30.6c81.52,76.96,21.84,103.93,21.84,103.93-68.05-8.74-21.84-103.93-21.84-103.93m-1.22-6.65l-2.38,4.9c-1.11,2.29-27.05,56.5-9.87,88.28,6.51,12.05,18.22,19.23,34.8,21.36l1.12.14,1.03-.47c.79-.36,19.31-8.95,22.85-30.07,3.77-22.49-10.9-49.54-43.59-80.41l-3.96-3.74h0Z"/>
      </g>
      <g>
        <path class="cls-3" d="m128.67,151.3c-.88,0-1.38-.04-1.38-.04l-.56-.04-.46-.33c-13-9.38-19.58-20.74-19.56-33.75.06-35.12,47.92-69.79,49.96-71.25l2.22-1.59.85,2.59c13.48,41.13,13.85,70.91,1.11,88.49-10.7,14.77-27.33,15.92-32.17,15.92h0Z"/>
        <path d="m157.84,47.51c32.04,97.77-20.33,101.79-29.16,101.79-.79,0-1.23-.03-1.23-.03-55.63-40.15,30.4-101.76,30.4-101.76m2.1-6.43l-4.43,3.17c-2.07,1.48-50.73,36.75-50.8,72.88-.02,13.69,6.83,25.6,20.39,35.38l.92.66,1.13.08c.1,0,.63.04,1.53.04,5.08,0,22.53-1.21,33.8-16.75,13.14-18.13,12.86-48.51-.83-90.29l-1.7-5.18h0Z"/>
      </g>
      <g>
        <path class="cls-3" d="m143.99,210.25c-6.53,0-13.56-1.68-20.9-4.99l-.52-.23-.32-.47c-.46-.68-11.16-16.85-3.49-35.72,8.31-20.47,34.5-35.41,77.84-44.41l2.67-.55-.27,2.71c-.02.21-2.17,20.96-9.83,41.43-10.33,27.63-25.96,42.23-45.18,42.23Z"/>
        <path d="m197.02,126.39s-8.22,81.86-53.02,81.86c-6.01,0-12.68-1.47-20.07-4.81,0,0-36.67-54.25,73.09-77.04m4.52-5.02l-5.34,1.11c-44.03,9.14-70.7,24.49-79.28,45.61-8.06,19.84,3.21,36.87,3.69,37.59l.63.94,1.03.47c7.59,3.43,14.9,5.17,21.72,5.17,20.13,0,36.41-15.05,47.06-43.53,7.75-20.71,9.86-41.07,9.94-41.93l.54-5.42h0Z"/>
      </g>
      <g>
        <path class="cls-3" d="m121.54,273.89c-6.53,0-13.56-1.68-20.89-4.99l-.52-.23-.32-.47c-.46-.68-11.16-16.85-3.49-35.72,8.31-20.47,34.5-35.41,77.84-44.41l2.67-.55-.27,2.71c-.02.21-2.17,20.96-9.83,41.43-10.33,27.63-25.96,42.23-45.19,42.23Z"/>
        <path d="m174.56,190.04s-8.22,81.86-53.02,81.86c-6.01,0-12.68-1.47-20.07-4.81,0,0-36.67-54.25,73.09-77.04m4.52-5.02l-5.34,1.11c-44.03,9.14-70.7,24.49-79.28,45.61-8.06,19.84,3.21,36.87,3.69,37.59l.63.94,1.03.47c7.59,3.43,14.9,5.17,21.72,5.17,20.13,0,36.41-15.05,47.06-43.53,7.75-20.71,9.86-41.07,9.94-41.93l.54-5.42h0Z"/>
      </g>
      <g>
        <path class="cls-3" d="m108.72,201.19c-15.9-2.04-27.11-8.88-33.29-20.33-16.7-30.89,8.81-84.2,9.91-86.46l1.19-2.45,1.98,1.87c32.18,30.38,46.65,56.84,42.99,78.63-3.37,20.08-20.96,28.24-21.7,28.58l-.52.23-.56-.07Z"/>
        <path d="m87.14,95.27c81.52,76.96,21.84,103.93,21.84,103.93-68.05-8.74-21.84-103.93-21.84-103.93m-1.22-6.65l-2.38,4.9c-1.11,2.29-27.05,56.5-9.87,88.28,6.51,12.05,18.22,19.23,34.8,21.36l1.12.14,1.03-.47c.79-.36,19.31-8.95,22.85-30.07,3.77-22.49-10.9-49.54-43.59-80.41l-3.96-3.74h0Z"/>
      </g>
      <g>
        <path class="cls-3" d="m90.37,265.99c-15.9-2.04-27.11-8.88-33.29-20.33-16.7-30.89,8.81-84.2,9.91-86.46l1.19-2.45,1.98,1.87c32.18,30.38,46.65,56.84,42.99,78.63-3.37,20.08-20.95,28.24-21.7,28.58l-.52.23-.56-.07Z"/>
        <path d="m68.78,160.08c81.52,76.96,21.84,103.93,21.84,103.93-68.05-8.74-21.84-103.93-21.84-103.93m-1.22-6.65l-2.38,4.9c-1.11,2.29-27.05,56.5-9.87,88.28,6.51,12.05,18.22,19.23,34.8,21.36l1.12.14,1.03-.47c.79-.36,19.31-8.95,22.85-30.07,3.77-22.49-10.9-49.54-43.59-80.41l-3.96-3.74h0Z"/>
      </g>
      <g>
        <path class="cls-3" d="m111.95,210.36c-.89,0-1.38-.04-1.38-.04l-.56-.04-.46-.33c-13-9.38-19.58-20.74-19.56-33.75.06-35.12,47.92-69.79,49.96-71.25l2.22-1.59.85,2.59c13.48,41.13,13.85,70.9,1.11,88.49-10.71,14.77-27.33,15.92-32.18,15.92Z"/>
        <path d="m141.11,106.57c32.04,97.77-20.33,101.79-29.16,101.79-.79,0-1.23-.03-1.23-.03-55.63-40.15,30.4-101.76,30.4-101.76m2.1-6.43l-4.43,3.17c-2.07,1.48-50.73,36.75-50.8,72.88-.02,13.69,6.83,25.6,20.39,35.38l.92.66,1.13.08c.1,0,.63.04,1.53.04,5.08,0,22.53-1.21,33.8-16.75,13.14-18.13,12.86-48.51-.83-90.29l-1.7-5.18h0Z"/>
      </g>
      <g>
        <path class="cls-3" d="m95.68,267.78c-.88,0-1.38-.04-1.38-.04l-.56-.04-.46-.33c-13-9.38-19.58-20.74-19.56-33.75.06-35.12,47.93-69.79,49.96-71.25l2.22-1.59.85,2.59c13.48,41.13,13.85,70.91,1.11,88.49-10.7,14.77-27.33,15.92-32.17,15.92h0Z"/>
        <path d="m124.85,164c32.04,97.77-20.33,101.79-29.16,101.79-.79,0-1.23-.03-1.23-.03-55.63-40.15,30.4-101.76,30.4-101.76m2.1-6.43l-4.43,3.17c-2.07,1.48-50.73,36.75-50.8,72.88-.02,13.69,6.83,25.6,20.39,35.38l.92.66,1.13.08c.1,0,.63.04,1.53.04,5.08,0,22.53-1.21,33.8-16.75,13.14-18.13,12.86-48.51-.83-90.29l-1.7-5.18h0Z"/>
      </g>
    </g>
    <g id="_レイヤー_7のコピー" data-name="レイヤー 7のコピー" class="cls-5">
      <path d="m272.59,467.28v-251.95h62.89v251.95h-62.89Zm159.38,0h-83.98v-62.89h126.17l-42.19,62.89Z"/>
      <path d="m487.05,316.11v-31.64c0-8.33,3.12-15.62,9.38-21.88s13.67-9.38,22.27-9.38h125.78c8.85,0,16.34,3.06,22.46,9.18,6.12,6.12,9.18,13.48,9.18,22.07v31.64h-189.06Zm157.42,151.17h-125.78c-8.59,0-16.02-3.12-22.27-9.38s-9.38-13.67-9.38-22.27v-107.03h63.28v75.78h62.89v-75.78h62.89v107.03c0,8.59-3.12,16.02-9.38,22.27s-13.67,9.38-22.27,9.38Z"/>
      <path d="m701.11,467.28v-251.95h63.28v251.95h-63.28Zm133.2,0l-57.42-88.28v-62.11l41.02-63.67h75l-61.33,94.53,77.73,119.53h-75Z"/>
      <path d="m928.45,227.83v-50.39h63.28v50.39h-63.28Zm0,239.45v-214.06h63.28v214.06h-63.28Z"/>
    </g>
    <g id="_葉" data-name="葉">
      <path class="cls-1" d="m2.05,448.59l16.58,70.84s2.61,6.06,7.34,2.08l52.08-50.81"/>
      <path d="m57.35,261.56l71.61,20.28-51.51,182.57-2.01-2.06-1.57-1.6-2.18.5-6.71,1.53-6.27-5.34-1.42-1.21-1.84.31-7.69,1.31-4.39-4.56-1.49-1.55-2.11.38-7.46,1.36-4.62-4.66-1.56-1.57-2.16.49-6.55,1.48-4.54-4.58-1.49-1.5-2.08.38-3.69.68,51.72-182.63m-2.76-4.94L.09,449.05l.47.14,9.48-1.75,6.1,6.16,8.71-1.96,6.1,6.16,9.53-1.73,5.86,6.09,9.78-1.66,7.79,6.64,8.66-1.98,6,6.13.84.86,54.47-193.06-79.3-22.46h0Z"/>
      <g>
        <line class="cls-1" x1="37.32" y1="317.6" x2="116.62" y2="340.05"/>
        <line class="cls-1" x1="38.89" y1="312.05" x2="118.19" y2="334.5"/>
        <line class="cls-1" x1="35.75" y1="323.15" x2="115.05" y2="345.6"/>
        <line class="cls-1" x1="37.32" y1="317.6" x2="116.62" y2="340.05"/>
        <line class="cls-1" x1="17.76" y1="386.67" x2="97.25" y2="409.17"/>
        <line class="cls-1" x1="94.06" y1="420.26" x2="14.62" y2="397.77"/>
        <line class="cls-1" x1="16.19" y1="392.22" x2="95.63" y2="414.71"/>
      </g>
      <path d="m13.99,498.08l28.64,8.11-15.51,15.2s-4.63,4.01-7.34-2.08l-5.8-21.23Z"/>
    </g>
    <g id="_レイヤー_13のコピー_2" data-name="レイヤー 13のコピー 2">
      <g>
        <path class="cls-2" d="m38.89,312.05l-6.03-1.71c-4.21,2.35-1.57,5.55-1.57,5.55l6.03,1.71"/>
        <path class="cls-2" d="m116.62,340.05l5.3,1.5c5.24-1.38,1.57-5.55,1.57-5.55l-5.3-1.5"/>
        <path class="cls-2" d="m116.62,340.05l5.3,1.5s3.67,4.17-1.57,5.55l-5.3-1.5"/>
        <path class="cls-2" d="m37.32,317.6l-6.03-1.7c-4.21,2.35-1.57,5.55-1.57,5.55l6.03,1.71"/>
        <path class="cls-2" d="m95.63,414.71l5.12,1.45c5.24-1.38,1.57-5.55,1.57-5.55l-5.13-1.45"/>
        <path class="cls-2" d="m17.76,386.67l-6.07-1.72c-4.21,2.35-1.57,5.55-1.57,5.55l6.07,1.72"/>
        <path class="cls-2" d="m16.19,392.22l-6.07-1.71c-4.21,2.35-1.57,5.55-1.57,5.55l6.07,1.72"/>
        <path class="cls-2" d="m95.63,414.71l5.12,1.45s3.67,4.17-1.57,5.55l-5.12-1.45"/>
      </g>
    </g>
  </g>
</svg>