<?xml version="1.0" encoding="UTF-8"?>
<svg xmlns="http://www.w3.org/2000/svg" xmlns:xlink="http://www.w3.org/1999/xlink" viewBox="0 0 991.77 524.87">
  <defs>
    <style>
      .cls-1, .cls-2 {
        fill: #fff;
      }

      .cls-2 {
        stroke-width: .25px;
      }

      .cls-2, .cls-3, .cls-4 {
        stroke: #fff;
      }

      .cls-2, .cls-4 {
        stroke-miterlimit: 10;
      }

      .cls-3 {
        stroke-linejoin: bevel;
      }

      .cls-3, .cls-4 {
        fill: none;
        stroke-width: 4px;
      }

      .cls-5 {
        isolation: isolate;
      }

      .cls-6 {
        mix-blend-mode: screen;
      }

      .cls-7 {
        mask: url(#mask);
      }

      .cls-8 {
        mix-blend-mode: multiply;
      }

      .cls-9 {
        filter: url(#luminosity-invert-noclip);
      }
    </style>
    <filter id="luminosity-invert-noclip" x=".67" y="256.47" width="134.11" height="215.91" color-interpolation-filters="sRGB" filterUnits="userSpaceOnUse">
      <feColorMatrix result="cm" values="-1 0 0 0 1 0 -1 0 0 1 0 0 -1 0 1 0 0 0 1 0"/>
      <feFlood flood-color="#fff" result="bg"/>
      <feBlend in="cm" in2="bg"/>
    </filter>
    <mask id="mask" x=".67" y="256.47" width="134.11" height="215.91" maskUnits="userSpaceOnUse">
      <g class="cls-9">
        <g>
          <line class="cls-4" x1="38.05" y1="317.61" x2="117.35" y2="340.05"/>
          <line class="cls-4" x1="39.63" y1="312.06" x2="118.92" y2="334.5"/>
          <line class="cls-4" x1="36.48" y1="323.16" x2="115.78" y2="345.61"/>
          <line class="cls-4" x1="38.05" y1="317.61" x2="117.35" y2="340.06"/>
          <line class="cls-4" x1="18.49" y1="386.67" x2="97.98" y2="409.17"/>
          <line class="cls-4" x1="94.79" y1="420.26" x2="15.35" y2="397.77"/>
          <line class="cls-4" x1="16.92" y1="392.22" x2="96.36" y2="414.71"/>
        </g>
      </g>
    </mask>
  </defs>
  <g class="cls-5">
    <g id="bg">
      <rect width="991.77" height="524.87"/>
    </g>
    <g id="_レイヤー_7" data-name="レイヤー 7" class="cls-8">
      <g>
        <g>
          <path d="m128.77,121.6c-15.67-4.76-25.79-13.59-30.1-26.23-11.48-33.72,22.84-82.44,24.31-84.5l2.37-3.33,2.46,3.26c26.88,35.6,36.79,64.41,29.44,85.62-6.84,19.74-26.04,24.99-26.85,25.2l-.82.22-.81-.25Z"/>
          <path class="cls-1" d="m125.42,12.62c67.55,89.47,4.22,106.12,4.22,106.12-65.64-19.95-4.22-106.12-4.22-106.12m-.14-10.14l-4.75,6.66c-1.5,2.11-36.68,52.05-24.71,87.21,4.63,13.61,15.42,23.07,32.06,28.13l1.63.49,1.64-.43c.88-.23,21.57-5.89,28.92-27.12,7.7-22.21-2.36-51.96-29.88-88.41l-4.93-6.53h0Z"/>
        </g>
        <g>
          <path d="m71.52,125.59c-16.24-2.08-27.7-9.1-34.05-20.85-16.94-31.34,8.78-85.1,9.89-87.37l1.79-3.68,2.97,2.81c32.44,30.63,47.01,57.38,43.29,79.52-3.45,20.6-21.51,28.98-22.28,29.33l-.77.35-.84-.11Z"/>
          <path class="cls-1" d="m50.06,18.69c81.52,76.96,21.84,103.93,21.84,103.93C3.85,113.88,50.06,18.69,50.06,18.69m-1.83-9.98l-3.57,7.36c-1.13,2.33-27.49,57.43-9.83,90.11,6.84,12.64,19.05,20.18,36.3,22.39l1.69.22,1.55-.7c.83-.37,20.28-9.4,24-31.56,3.89-23.19-10.98-50.84-44.19-82.2l-5.95-5.61h0Z"/>
        </g>
        <g>
          <path d="m158.4,127.88c-4.59,0-9.54-.69-14.7-2.04l-.82-.22-.59-.61c-.58-.61-14.17-15.15-9.65-35.54,4.86-21.91,28.4-41.25,69.96-57.47l3.81-1.49.27,4.08c.15,2.28,3.5,56.19-19.73,81.04-7.6,8.13-17.21,12.25-28.56,12.25Z"/>
          <path class="cls-1" d="m203.7,34.79s6.07,90.09-45.3,90.09c-4.24,0-8.87-.61-13.93-1.94,0,0-45.2-47.38,59.23-88.15m5.44-8.56l-7.62,2.97c-42.55,16.61-66.71,36.67-71.8,59.62-4.87,21.94,9.78,37.61,10.41,38.26l1.17,1.23,1.64.43c5.41,1.42,10.61,2.14,15.46,2.14,12.22,0,22.56-4.44,30.75-13.2,24.11-25.79,20.69-80.96,20.53-83.29l-.55-8.16h0Z"/>
        </g>
        <g>
          <path d="m213.24,163.31c-6.68,0-13.85-1.71-21.31-5.08l-.77-.35-.48-.7c-.47-.7-11.45-17.3-3.59-36.65,8.45-20.8,34.88-35.94,78.56-45.01l4-.83-.41,4.07c-.35,3.45-9.03,84.56-56.01,84.56Z"/>
          <path class="cls-1" d="m266.26,78.45s-8.22,81.86-53.02,81.86c-6.01,0-12.68-1.47-20.07-4.81,0,0-36.67-54.25,73.09-77.04m6.79-7.54l-8.01,1.66c-44.72,9.29-71.88,25.04-80.73,46.82-8.46,20.82,3.38,38.71,3.89,39.46l.95,1.41,1.55.7c7.85,3.55,15.44,5.34,22.54,5.34,49.66,0,58.63-83.69,58.99-87.26l.82-8.14h0Z"/>
        </g>
        <g>
          <path d="m165.55,153.35c-6.68,0-13.85-1.71-21.31-5.08l-.77-.35-.48-.7c-.47-.7-11.45-17.3-3.59-36.65,8.45-20.8,34.88-35.94,78.56-45.01l4-.83-.41,4.07c-.35,3.45-9.03,84.56-56.01,84.56Z"/>
          <path class="cls-1" d="m218.58,68.49s-8.22,81.86-53.02,81.86c-6.01,0-12.68-1.47-20.07-4.81,0,0-36.67-54.25,73.09-77.04m6.79-7.54l-8.01,1.66c-44.72,9.29-71.88,25.04-80.73,46.82-8.46,20.82,3.38,38.71,3.89,39.46l.95,1.41,1.55.7c7.85,3.55,15.44,5.34,22.54,5.34,49.66,0,58.63-83.69,58.99-87.26l.82-8.14h0Z"/>
        </g>
        <g>
          <path d="m188.31,220.05c-6.68,0-13.85-1.71-21.31-5.08l-.77-.35-.48-.7c-.47-.7-11.45-17.3-3.59-36.65,8.45-20.8,34.88-35.94,78.56-45.01l4-.83-.41,4.07c-.35,3.45-9.03,84.56-56.01,84.56Z"/>
          <path class="cls-1" d="m241.33,135.19s-8.22,81.86-53.02,81.86c-6.01,0-12.68-1.47-20.07-4.81,0,0-36.67-54.25,73.09-77.04m6.79-7.54l-8.01,1.66c-44.72,9.29-71.88,25.04-80.73,46.82-8.46,20.82,3.38,38.71,3.89,39.46l.95,1.41,1.55.7c7.85,3.55,15.44,5.34,22.54,5.34,49.66,0,58.63-83.69,58.99-87.26l.82-8.14h0Z"/>
        </g>
        <g>
          <path d="m65.03,189.64c-16.24-2.08-27.7-9.1-34.05-20.85-16.94-31.34,8.78-85.1,9.89-87.37l1.79-3.68,2.97,2.81c32.44,30.63,47.01,57.38,43.29,79.52-3.45,20.6-21.51,28.98-22.28,29.33l-.77.35-.84-.11Z"/>
          <path class="cls-1" d="m43.57,82.73c81.52,76.96,21.84,103.93,21.84,103.93-68.05-8.74-21.84-103.93-21.84-103.93m-1.83-9.98l-3.57,7.36c-1.13,2.33-27.49,57.43-9.83,90.11,6.84,12.64,19.05,20.18,36.3,22.39l1.69.22,1.55-.7c.83-.37,20.28-9.4,24-31.56,3.89-23.19-10.98-50.84-44.19-82.2l-5.95-5.61h0Z"/>
        </g>
        <g>
          <path d="m139.5,279.78c-6.68,0-13.85-1.71-21.31-5.08l-.77-.35-.48-.7c-.47-.7-11.45-17.3-3.59-36.65,8.45-20.8,34.88-35.94,78.56-45.01l4-.83-.41,4.07c-.35,3.45-9.03,84.56-56.01,84.56Z"/>
          <path class="cls-1" d="m192.52,194.92s-8.22,81.86-53.02,81.86c-6.01,0-12.68-1.47-20.07-4.81,0,0-36.67-54.25,73.09-77.04m6.79-7.54l-8.01,1.66c-44.72,9.29-71.88,25.04-80.73,46.82-8.46,20.82,3.38,38.71,3.89,39.46l.95,1.41,1.55.7c7.85,3.55,15.44,5.34,22.54,5.34,49.66,0,58.63-83.69,58.99-87.26l.82-8.14h0Z"/>
        </g>
        <g>
          <path d="m70.46,261.18c-16.24-2.08-27.7-9.1-34.05-20.84-16.94-31.34,8.78-85.1,9.89-87.37l1.79-3.68,2.97,2.81c32.44,30.63,47.01,57.38,43.29,79.52-3.45,20.6-21.51,28.98-22.28,29.33l-.77.35-.84-.11Z"/>
          <path class="cls-1" d="m49,154.28c81.52,76.96,21.84,103.93,21.84,103.93-68.05-8.74-21.84-103.93-21.84-103.93m-1.83-9.98l-3.57,7.36c-1.13,2.33-27.49,57.43-9.83,90.11,6.84,12.64,19.05,20.18,36.3,22.39l1.69.22,1.55-.7c.83-.37,20.28-9.4,24-31.56,3.89-23.19-10.98-50.84-44.19-82.2l-5.95-5.61h0Z"/>
        </g>
        <g>
          <path d="m118.78,137.51c-16.24-2.08-27.7-9.1-34.05-20.85-16.94-31.34,8.78-85.1,9.89-87.37l1.79-3.68,2.97,2.81c32.44,30.63,47.01,57.38,43.29,79.52-3.45,20.6-21.51,28.98-22.28,29.33l-.77.35-.84-.11Z"/>
          <path class="cls-1" d="m97.32,30.61c81.52,76.96,21.84,103.93,21.84,103.93-68.05-8.74-21.84-103.93-21.84-103.93m-1.83-9.98l-3.57,7.36c-1.13,2.33-27.49,57.43-9.83,90.11,6.84,12.64,19.05,20.18,36.3,22.39l1.69.22,1.55-.7c.83-.37,20.28-9.4,24-31.56,3.89-23.19-10.98-50.84-44.19-82.2l-5.95-5.61h0Z"/>
        </g>
        <g>
          <path d="m129.4,152.3c-.93,0-1.45-.04-1.45-.04l-.84-.06-.7-.49c-13.28-9.58-20-21.21-19.97-34.56.06-35.62,48.33-70.59,50.38-72.06l3.32-2.38,1.27,3.89c13.59,41.45,13.91,71.53.97,89.39-10.98,15.16-28.02,16.33-32.98,16.33h0Z"/>
          <path class="cls-1" d="m158.57,47.51c32.04,97.77-20.33,101.79-29.16,101.79-.79,0-1.23-.03-1.23-.03-55.63-40.15,30.4-101.76,30.4-101.76m3.15-9.64l-6.65,4.76c-2.11,1.51-51.57,37.35-51.63,74.5-.03,14.37,7.11,26.82,21.22,37l1.38.99,1.7.12c.11,0,.71.05,1.67.05,5.32,0,23.6-1.27,35.42-17.58,13.54-18.68,13.35-49.66-.55-92.08l-2.55-7.77h0Z"/>
        </g>
        <g>
          <path d="m144.72,211.25c-6.68,0-13.85-1.71-21.31-5.08l-.77-.35-.48-.7c-.47-.7-11.45-17.3-3.59-36.65,8.45-20.8,34.88-35.94,78.56-45.01l4-.83-.41,4.07c-.35,3.45-9.03,84.56-56.01,84.56Z"/>
          <path class="cls-1" d="m197.75,126.4s-8.22,81.86-53.02,81.86c-6.01,0-12.68-1.47-20.07-4.81,0,0-36.67-54.25,73.09-77.04m6.79-7.54l-8.01,1.66c-44.72,9.29-71.88,25.04-80.73,46.82-8.46,20.82,3.38,38.71,3.89,39.46l.95,1.41,1.55.7c7.85,3.55,15.44,5.34,22.54,5.34,49.66,0,58.63-83.69,58.99-87.26l.82-8.14h0Z"/>
        </g>
        <g>
          <path d="m122.27,274.9c-6.68,0-13.85-1.71-21.31-5.08l-.77-.35-.48-.7c-.47-.7-11.45-17.3-3.59-36.65,8.45-20.8,34.88-35.94,78.56-45.01l4-.83-.41,4.07c-.35,3.45-9.03,84.56-56.01,84.56Z"/>
          <path class="cls-1" d="m175.29,190.04s-8.22,81.86-53.02,81.86c-6.01,0-12.68-1.47-20.07-4.81,0,0-36.67-54.25,73.09-77.04m6.79-7.54l-8.01,1.66c-44.72,9.29-71.88,25.04-80.73,46.82-8.46,20.82,3.38,38.71,3.89,39.46l.95,1.41,1.55.7c7.85,3.55,15.44,5.34,22.54,5.34,49.66,0,58.63-83.69,58.99-87.26l.82-8.14h0Z"/>
        </g>
        <g>
          <path d="m109.33,202.18c-16.24-2.08-27.7-9.1-34.05-20.84-16.94-31.34,8.78-85.1,9.89-87.37l1.79-3.68,2.97,2.81c32.44,30.63,47.01,57.38,43.29,79.52-3.45,20.6-21.51,28.98-22.28,29.33l-.77.35-.84-.11Z"/>
          <path class="cls-1" d="m87.87,95.28c81.52,76.96,21.84,103.93,21.84,103.93-68.05-8.74-21.84-103.93-21.84-103.93m-1.83-9.98l-3.57,7.36c-1.13,2.33-27.49,57.43-9.83,90.11,6.84,12.64,19.05,20.18,36.3,22.39l1.69.22,1.55-.7c.83-.37,20.28-9.4,24-31.56,3.89-23.19-10.98-50.84-44.19-82.2l-5.95-5.61h0Z"/>
        </g>
        <g>
          <path d="m90.97,266.99c-16.24-2.08-27.7-9.1-34.05-20.84-16.94-31.34,8.78-85.1,9.89-87.37l1.79-3.68,2.97,2.81c32.44,30.63,47.01,57.38,43.29,79.52-3.45,20.6-21.51,28.98-22.28,29.33l-.77.35-.84-.11Z"/>
          <path class="cls-1" d="m69.51,160.09c81.52,76.96,21.84,103.93,21.84,103.93-68.05-8.74-21.84-103.93-21.84-103.93m-1.83-9.98l-3.57,7.36c-1.13,2.33-27.49,57.43-9.83,90.11,6.84,12.64,19.05,20.18,36.3,22.39l1.69.22,1.55-.7c.83-.37,20.28-9.4,24-31.56,3.89-23.19-10.98-50.84-44.19-82.2l-5.95-5.61h0Z"/>
        </g>
        <g>
          <path d="m112.68,211.37c-.93,0-1.45-.04-1.45-.04l-.84-.06-.7-.5c-13.28-9.58-20-21.21-19.97-34.56.06-35.62,48.33-70.59,50.38-72.06l3.32-2.38,1.27,3.89c13.59,41.45,13.91,71.53.97,89.39-10.98,15.16-28.02,16.33-32.98,16.33h0Z"/>
          <path class="cls-1" d="m141.84,106.58c32.04,97.77-20.33,101.79-29.16,101.79-.79,0-1.23-.03-1.23-.03-55.63-40.15,30.4-101.76,30.4-101.76m3.15-9.64l-6.65,4.76c-2.11,1.51-51.57,37.35-51.63,74.5-.03,14.37,7.11,26.82,21.22,37l1.38.99,1.7.12c.11,0,.71.05,1.67.05,5.32,0,23.6-1.27,35.42-17.58,13.54-18.68,13.35-49.66-.55-92.08l-2.55-7.77h0Z"/>
        </g>
        <g>
          <path d="m96.41,268.79c-.93,0-1.45-.04-1.45-.04l-.84-.07-.7-.49c-13.28-9.58-20-21.21-19.97-34.56.06-35.62,48.33-70.59,50.38-72.06l3.32-2.38,1.27,3.89c13.59,41.46,13.91,71.53.97,89.39-10.98,15.16-28.02,16.33-32.98,16.33h0Z"/>
          <path class="cls-1" d="m125.58,164c32.04,97.77-20.33,101.79-29.16,101.79-.79,0-1.23-.03-1.23-.03-55.63-40.15,30.4-101.76,30.4-101.76m3.15-9.64l-6.65,4.76c-2.11,1.51-51.57,37.35-51.63,74.5-.03,14.37,7.11,26.82,21.22,37l1.38.99,1.7.12c.11,0,.71.05,1.67.05,5.32,0,23.6-1.27,35.42-17.58,13.54-18.68,13.35-49.66-.55-92.08l-2.55-7.77h0Z"/>
        </g>
      </g>
    </g>
    <g id="_レイヤー_7のコピー_2" data-name="レイヤー 7のコピー 2" class="cls-6">
      <g>
        <g>
          <path class="cls-1" d="m128.77,121.6c-15.67-4.76-25.79-13.59-30.1-26.23-11.48-33.72,22.84-82.44,24.31-84.5l2.37-3.33,2.46,3.26c26.88,35.6,36.79,64.41,29.44,85.62-6.84,19.74-26.04,24.99-26.85,25.2l-.82.22-.81-.25Z"/>
          <path d="m125.42,12.62c67.55,89.47,4.22,106.12,4.22,106.12-65.64-19.95-4.22-106.12-4.22-106.12m-.14-10.14l-4.75,6.66c-1.5,2.11-36.68,52.05-24.71,87.21,4.63,13.61,15.42,23.07,32.06,28.13l1.63.49,1.64-.43c.88-.23,21.57-5.89,28.92-27.12,7.7-22.21-2.36-51.96-29.88-88.41l-4.93-6.53h0Z"/>
        </g>
        <g>
          <path class="cls-1" d="m71.52,125.59c-16.24-2.08-27.7-9.1-34.05-20.85-16.94-31.34,8.78-85.1,9.89-87.37l1.79-3.68,2.97,2.81c32.44,30.63,47.01,57.38,43.29,79.52-3.45,20.6-21.51,28.98-22.28,29.33l-.77.35-.84-.11Z"/>
          <path d="m50.06,18.69c81.52,76.96,21.84,103.93,21.84,103.93C3.85,113.88,50.06,18.69,50.06,18.69m-1.83-9.98l-3.57,7.36c-1.13,2.33-27.49,57.43-9.83,90.11,6.84,12.64,19.05,20.18,36.3,22.39l1.69.22,1.55-.7c.83-.37,20.28-9.4,24-31.56,3.89-23.19-10.98-50.84-44.19-82.2l-5.95-5.61h0Z"/>
        </g>
        <g>
          <path class="cls-1" d="m158.4,127.88c-4.59,0-9.54-.69-14.7-2.04l-.82-.22-.59-.61c-.58-.61-14.17-15.15-9.65-35.54,4.86-21.91,28.4-41.25,69.96-57.47l3.81-1.49.27,4.08c.15,2.28,3.5,56.19-19.73,81.04-7.6,8.13-17.21,12.25-28.56,12.25Z"/>
          <path d="m203.7,34.79s6.07,90.09-45.3,90.09c-4.24,0-8.87-.61-13.93-1.94,0,0-45.2-47.38,59.23-88.15m5.44-8.56l-7.62,2.97c-42.55,16.61-66.71,36.67-71.8,59.62-4.87,21.94,9.78,37.61,10.41,38.26l1.17,1.23,1.64.43c5.41,1.42,10.61,2.14,15.46,2.14,12.22,0,22.56-4.44,30.75-13.2,24.11-25.79,20.69-80.96,20.53-83.29l-.55-8.16h0Z"/>
        </g>
        <g>
          <path class="cls-1" d="m213.24,163.31c-6.68,0-13.85-1.71-21.31-5.08l-.77-.35-.48-.7c-.47-.7-11.45-17.3-3.59-36.65,8.45-20.8,34.88-35.94,78.56-45.01l4-.83-.41,4.07c-.35,3.45-9.03,84.56-56.01,84.56Z"/>
          <path d="m266.26,78.45s-8.22,81.86-53.02,81.86c-6.01,0-12.68-1.47-20.07-4.81,0,0-36.67-54.25,73.09-77.04m6.79-7.54l-8.01,1.66c-44.72,9.29-71.88,25.04-80.73,46.82-8.46,20.82,3.38,38.71,3.89,39.46l.95,1.41,1.55.7c7.85,3.55,15.44,5.34,22.54,5.34,49.66,0,58.63-83.69,58.99-87.26l.82-8.14h0Z"/>
        </g>
        <g>
          <path class="cls-1" d="m165.55,153.35c-6.68,0-13.85-1.71-21.31-5.08l-.77-.35-.48-.7c-.47-.7-11.45-17.3-3.59-36.65,8.45-20.8,34.88-35.94,78.56-45.01l4-.83-.41,4.07c-.35,3.45-9.03,84.56-56.01,84.56Z"/>
          <path d="m218.58,68.49s-8.22,81.86-53.02,81.86c-6.01,0-12.68-1.47-20.07-4.81,0,0-36.67-54.25,73.09-77.04m6.79-7.54l-8.01,1.66c-44.72,9.29-71.88,25.04-80.73,46.82-8.46,20.82,3.38,38.71,3.89,39.46l.95,1.41,1.55.7c7.85,3.55,15.44,5.34,22.54,5.34,49.66,0,58.63-83.69,58.99-87.26l.82-8.14h0Z"/>
        </g>
        <g>
          <path class="cls-1" d="m188.31,220.05c-6.68,0-13.85-1.71-21.31-5.08l-.77-.35-.48-.7c-.47-.7-11.45-17.3-3.59-36.65,8.45-20.8,34.88-35.94,78.56-45.01l4-.83-.41,4.07c-.35,3.45-9.03,84.56-56.01,84.56Z"/>
          <path d="m241.33,135.19s-8.22,81.86-53.02,81.86c-6.01,0-12.68-1.47-20.07-4.81,0,0-36.67-54.25,73.09-77.04m6.79-7.54l-8.01,1.66c-44.72,9.29-71.88,25.04-80.73,46.82-8.46,20.82,3.38,38.71,3.89,39.46l.95,1.41,1.55.7c7.85,3.55,15.44,5.34,22.54,5.34,49.66,0,58.63-83.69,58.99-87.26l.82-8.14h0Z"/>
        </g>
        <g>
          <path class="cls-1" d="m65.03,189.64c-16.24-2.08-27.7-9.1-34.05-20.85-16.94-31.34,8.78-85.1,9.89-87.37l1.79-3.68,2.97,2.81c32.44,30.63,47.01,57.38,43.29,79.52-3.45,20.6-21.51,28.98-22.28,29.33l-.77.35-.84-.11Z"/>
          <path d="m43.57,82.73c81.52,76.96,21.84,103.93,21.84,103.93-68.05-8.74-21.84-103.93-21.84-103.93m-1.83-9.98l-3.57,7.36c-1.13,2.33-27.49,57.43-9.83,90.11,6.84,12.64,19.05,20.18,36.3,22.39l1.69.22,1.55-.7c.83-.37,20.28-9.4,24-31.56,3.89-23.19-10.98-50.84-44.19-82.2l-5.95-5.61h0Z"/>
        </g>
        <g>
          <path class="cls-1" d="m139.5,279.78c-6.68,0-13.85-1.71-21.31-5.08l-.77-.35-.48-.7c-.47-.7-11.45-17.3-3.59-36.65,8.45-20.8,34.88-35.94,78.56-45.01l4-.83-.41,4.07c-.35,3.45-9.03,84.56-56.01,84.56Z"/>
          <path d="m192.52,194.92s-8.22,81.86-53.02,81.86c-6.01,0-12.68-1.47-20.07-4.81,0,0-36.67-54.25,73.09-77.04m6.79-7.54l-8.01,1.66c-44.72,9.29-71.88,25.04-80.73,46.82-8.46,20.82,3.38,38.71,3.89,39.46l.95,1.41,1.55.7c7.85,3.55,15.44,5.34,22.54,5.34,49.66,0,58.63-83.69,58.99-87.26l.82-8.14h0Z"/>
        </g>
        <g>
          <path class="cls-1" d="m70.46,261.18c-16.24-2.08-27.7-9.1-34.05-20.84-16.94-31.34,8.78-85.1,9.89-87.37l1.79-3.68,2.97,2.81c32.44,30.63,47.01,57.38,43.29,79.52-3.45,20.6-21.51,28.98-22.28,29.33l-.77.35-.84-.11Z"/>
          <path d="m49,154.28c81.52,76.96,21.84,103.93,21.84,103.93-68.05-8.74-21.84-103.93-21.84-103.93m-1.83-9.98l-3.57,7.36c-1.13,2.33-27.49,57.43-9.83,90.11,6.84,12.64,19.05,20.18,36.3,22.39l1.69.22,1.55-.7c.83-.37,20.28-9.4,24-31.56,3.89-23.19-10.98-50.84-44.19-82.2l-5.95-5.61h0Z"/>
        </g>
        <g>
          <path class="cls-1" d="m118.78,137.51c-16.24-2.08-27.7-9.1-34.05-20.85-16.94-31.34,8.78-85.1,9.89-87.37l1.79-3.68,2.97,2.81c32.44,30.63,47.01,57.38,43.29,79.52-3.45,20.6-21.51,28.98-22.28,29.33l-.77.35-.84-.11Z"/>
          <path d="m97.32,30.61c81.52,76.96,21.84,103.93,21.84,103.93-68.05-8.74-21.84-103.93-21.84-103.93m-1.83-9.98l-3.57,7.36c-1.13,2.33-27.49,57.43-9.83,90.11,6.84,12.64,19.05,20.18,36.3,22.39l1.69.22,1.55-.7c.83-.37,20.28-9.4,24-31.56,3.89-23.19-10.98-50.84-44.19-82.2l-5.95-5.61h0Z"/>
        </g>
        <g>
          <path class="cls-1" d="m129.4,152.3c-.93,0-1.45-.04-1.45-.04l-.84-.06-.7-.49c-13.28-9.58-20-21.21-19.97-34.56.06-35.62,48.33-70.59,50.38-72.06l3.32-2.38,1.27,3.89c13.59,41.45,13.91,71.53.97,89.39-10.98,15.16-28.02,16.33-32.98,16.33h0Z"/>
          <path d="m158.57,47.51c32.04,97.77-20.33,101.79-29.16,101.79-.79,0-1.23-.03-1.23-.03-55.63-40.15,30.4-101.76,30.4-101.76m3.15-9.64l-6.65,4.76c-2.11,1.51-51.57,37.35-51.63,74.5-.03,14.37,7.11,26.82,21.22,37l1.38.99,1.7.12c.11,0,.71.05,1.67.05,5.32,0,23.6-1.27,35.42-17.58,13.54-18.68,13.35-49.66-.55-92.08l-2.55-7.77h0Z"/>
        </g>
        <g>
          <path class="cls-1" d="m144.72,211.25c-6.68,0-13.85-1.71-21.31-5.08l-.77-.35-.48-.7c-.47-.7-11.45-17.3-3.59-36.65,8.45-20.8,34.88-35.94,78.56-45.01l4-.83-.41,4.07c-.35,3.45-9.03,84.56-56.01,84.56Z"/>
          <path d="m197.75,126.4s-8.22,81.86-53.02,81.86c-6.01,0-12.68-1.47-20.07-4.81,0,0-36.67-54.25,73.09-77.04m6.79-7.54l-8.01,1.66c-44.72,9.29-71.88,25.04-80.73,46.82-8.46,20.82,3.38,38.71,3.89,39.46l.95,1.41,1.55.7c7.85,3.55,15.44,5.34,22.54,5.34,49.66,0,58.63-83.69,58.99-87.26l.82-8.14h0Z"/>
        </g>
        <g>
          <path class="cls-1" d="m122.27,274.9c-6.68,0-13.85-1.71-21.31-5.08l-.77-.35-.48-.7c-.47-.7-11.45-17.3-3.59-36.65,8.45-20.8,34.88-35.94,78.56-45.01l4-.83-.41,4.07c-.35,3.45-9.03,84.56-56.01,84.56Z"/>
          <path d="m175.29,190.04s-8.22,81.86-53.02,81.86c-6.01,0-12.68-1.47-20.07-4.81,0,0-36.67-54.25,73.09-77.04m6.79-7.54l-8.01,1.66c-44.72,9.29-71.88,25.04-80.73,46.82-8.46,20.82,3.38,38.71,3.89,39.46l.95,1.41,1.55.7c7.85,3.55,15.44,5.34,22.54,5.34,49.66,0,58.63-83.69,58.99-87.26l.82-8.14h0Z"/>
        </g>
        <g>
          <path class="cls-1" d="m109.33,202.18c-16.24-2.08-27.7-9.1-34.05-20.84-16.94-31.34,8.78-85.1,9.89-87.37l1.79-3.68,2.97,2.81c32.44,30.63,47.01,57.38,43.29,79.52-3.45,20.6-21.51,28.98-22.28,29.33l-.77.35-.84-.11Z"/>
          <path d="m87.87,95.28c81.52,76.96,21.84,103.93,21.84,103.93-68.05-8.74-21.84-103.93-21.84-103.93m-1.83-9.98l-3.57,7.36c-1.13,2.33-27.49,57.43-9.83,90.11,6.84,12.64,19.05,20.18,36.3,22.39l1.69.22,1.55-.7c.83-.37,20.28-9.4,24-31.56,3.89-23.19-10.98-50.84-44.19-82.2l-5.95-5.61h0Z"/>
        </g>
        <g>
          <path class="cls-1" d="m90.97,266.99c-16.24-2.08-27.7-9.1-34.05-20.84-16.94-31.34,8.78-85.1,9.89-87.37l1.79-3.68,2.97,2.81c32.44,30.63,47.01,57.38,43.29,79.52-3.45,20.6-21.51,28.98-22.28,29.33l-.77.35-.84-.11Z"/>
          <path d="m69.51,160.09c81.52,76.96,21.84,103.93,21.84,103.93-68.05-8.74-21.84-103.93-21.84-103.93m-1.83-9.98l-3.57,7.36c-1.13,2.33-27.49,57.43-9.83,90.11,6.84,12.64,19.05,20.18,36.3,22.39l1.69.22,1.55-.7c.83-.37,20.28-9.4,24-31.56,3.89-23.19-10.98-50.84-44.19-82.2l-5.95-5.61h0Z"/>
        </g>
        <g>
          <path class="cls-1" d="m112.68,211.37c-.93,0-1.45-.04-1.45-.04l-.84-.06-.7-.5c-13.28-9.58-20-21.21-19.97-34.56.06-35.62,48.33-70.59,50.38-72.06l3.32-2.38,1.27,3.89c13.59,41.45,13.91,71.53.97,89.39-10.98,15.16-28.02,16.33-32.98,16.33h0Z"/>
          <path d="m141.84,106.58c32.04,97.77-20.33,101.79-29.16,101.79-.79,0-1.23-.03-1.23-.03-55.63-40.15,30.4-101.76,30.4-101.76m3.15-9.64l-6.65,4.76c-2.11,1.51-51.57,37.35-51.63,74.5-.03,14.37,7.11,26.82,21.22,37l1.38.99,1.7.12c.11,0,.71.05,1.67.05,5.32,0,23.6-1.27,35.42-17.58,13.54-18.68,13.35-49.66-.55-92.08l-2.55-7.77h0Z"/>
        </g>
        <g>
          <path class="cls-1" d="m96.41,268.79c-.93,0-1.45-.04-1.45-.04l-.84-.07-.7-.49c-13.28-9.58-20-21.21-19.97-34.56.06-35.62,48.33-70.59,50.38-72.06l3.32-2.38,1.27,3.89c13.59,41.46,13.91,71.53.97,89.39-10.98,15.16-28.02,16.33-32.98,16.33h0Z"/>
          <path d="m125.58,164c32.04,97.77-20.33,101.79-29.16,101.79-.79,0-1.23-.03-1.23-.03-55.63-40.15,30.4-101.76,30.4-101.76m3.15-9.64l-6.65,4.76c-2.11,1.51-51.57,37.35-51.63,74.5-.03,14.37,7.11,26.82,21.22,37l1.38.99,1.7.12c.11,0,.71.05,1.67.05,5.32,0,23.6-1.27,35.42-17.58,13.54-18.68,13.35-49.66-.55-92.08l-2.55-7.77h0Z"/>
        </g>
      </g>
    </g>
    <g id="_レイヤー_7のコピー" data-name="レイヤー 7のコピー" class="cls-8">
      <path class="cls-1" d="m125.42,12.62c67.55,89.47,4.22,106.12,4.22,106.12-65.64-19.95-4.22-106.12-4.22-106.12m-.14-10.14l-4.75,6.66c-1.5,2.11-36.68,52.05-24.71,87.21,4.63,13.61,15.42,23.07,32.06,28.13l1.63.49,1.64-.43c.88-.23,21.57-5.89,28.92-27.12,7.7-22.21-2.36-51.96-29.88-88.41l-4.93-6.53h0Z"/>
      <path class="cls-1" d="m48.92,16.9c81.52,76.96,21.84,103.93,21.84,103.93C2.71,112.1,48.92,16.9,48.92,16.9m-1.83-9.98l-3.57,7.36c-1.13,2.33-27.49,57.43-9.83,90.11,6.84,12.64,19.05,20.18,36.3,22.39l1.69.22,1.55-.7c.83-.37,20.28-9.4,24-31.56,3.89-23.19-10.98-50.84-44.19-82.2l-5.95-5.61h0Z"/>
      <path class="cls-1" d="m203.7,34.79s6.07,90.09-45.3,90.09c-4.24,0-8.87-.61-13.93-1.94,0,0-45.2-47.38,59.23-88.15m5.44-8.56l-7.62,2.97c-42.55,16.61-66.71,36.67-71.8,59.62-4.87,21.94,9.78,37.61,10.41,38.26l1.17,1.23,1.64.43c5.41,1.42,10.61,2.14,15.46,2.14,12.22,0,22.56-4.44,30.75-13.2,24.11-25.79,20.69-80.96,20.53-83.29l-.55-8.16h0Z"/>
      <path class="cls-1" d="m266.26,78.45s-8.22,81.86-53.02,81.86c-6.01,0-12.68-1.47-20.07-4.81,0,0-36.67-54.25,73.09-77.04m6.79-7.54l-8.01,1.66c-44.72,9.29-71.88,25.04-80.73,46.82-8.46,20.82,3.38,38.71,3.89,39.46l.95,1.41,1.55.7c7.85,3.55,15.44,5.34,22.54,5.34,49.66,0,58.63-83.69,58.99-87.26l.82-8.14h0Z"/>
      <path class="cls-1" d="m218.58,68.49s-8.22,81.86-53.02,81.86c-6.01,0-12.68-1.47-20.07-4.81,0,0-36.67-54.25,73.09-77.04m6.79-7.54l-8.01,1.66c-44.72,9.29-71.88,25.04-80.73,46.82-8.46,20.82,3.38,38.71,3.89,39.46l.95,1.41,1.55.7c7.85,3.55,15.44,5.34,22.54,5.34,49.66,0,58.63-83.69,58.99-87.26l.82-8.14h0Z"/>
      <path class="cls-1" d="m241.33,135.19s-8.22,81.86-53.02,81.86c-6.01,0-12.68-1.47-20.07-4.81,0,0-36.67-54.25,73.09-77.04m6.79-7.54l-8.01,1.66c-44.72,9.29-71.88,25.04-80.73,46.82-8.46,20.82,3.38,38.71,3.89,39.46l.95,1.41,1.55.7c7.85,3.55,15.44,5.34,22.54,5.34,49.66,0,58.63-83.69,58.99-87.26l.82-8.14h0Z"/>
      <path class="cls-1" d="m43.57,82.73c81.52,76.96,21.84,103.93,21.84,103.93-68.05-8.74-21.84-103.93-21.84-103.93m-1.83-9.98l-3.57,7.36c-1.13,2.33-27.49,57.43-9.83,90.11,6.84,12.64,19.05,20.18,36.3,22.39l1.69.22,1.55-.7c.83-.37,20.28-9.4,24-31.56,3.89-23.19-10.98-50.84-44.19-82.2l-5.95-5.61h0Z"/>
      <path class="cls-1" d="m192.52,194.92s-8.22,81.86-53.02,81.86c-6.01,0-12.68-1.47-20.07-4.81,0,0-36.67-54.25,73.09-77.04m6.79-7.54l-8.01,1.66c-44.72,9.29-71.88,25.04-80.73,46.82-8.46,20.82,3.38,38.71,3.89,39.46l.95,1.41,1.55.7c7.85,3.55,15.44,5.34,22.54,5.34,49.66,0,58.63-83.69,58.99-87.26l.82-8.14h0Z"/>
      <path class="cls-1" d="m49,154.28c81.52,76.96,21.84,103.93,21.84,103.93-68.05-8.74-21.84-103.93-21.84-103.93m-1.83-9.98l-3.57,7.36c-1.13,2.33-27.49,57.43-9.83,90.11,6.84,12.64,19.05,20.18,36.3,22.39l1.69.22,1.55-.7c.83-.37,20.28-9.4,24-31.56,3.89-23.19-10.98-50.84-44.19-82.2l-5.95-5.61h0Z"/>
      <path class="cls-1" d="m97.32,30.61c81.52,76.96,21.84,103.93,21.84,103.93-68.05-8.74-21.84-103.93-21.84-103.93m-1.83-9.98l-3.57,7.36c-1.13,2.33-27.49,57.43-9.83,90.11,6.84,12.64,19.05,20.18,36.3,22.39l1.69.22,1.55-.7c.83-.37,20.28-9.4,24-31.56,3.89-23.19-10.98-50.84-44.19-82.2l-5.95-5.61h0Z"/>
      <path class="cls-1" d="m158.57,47.51c32.04,97.77-20.33,101.79-29.16,101.79-.79,0-1.23-.03-1.23-.03-55.63-40.15,30.4-101.76,30.4-101.76m3.15-9.64l-6.65,4.76c-2.11,1.51-51.57,37.35-51.63,74.5-.03,14.37,7.11,26.82,21.22,37l1.38.99,1.7.12c.11,0,.71.05,1.67.05,5.32,0,23.6-1.27,35.42-17.58,13.54-18.68,13.35-49.66-.55-92.08l-2.55-7.77h0Z"/>
      <path class="cls-1" d="m197.75,126.4s-8.22,81.86-53.02,81.86c-6.01,0-12.68-1.47-20.07-4.81,0,0-36.67-54.25,73.09-77.04m6.79-7.54l-8.01,1.66c-44.72,9.29-71.88,25.04-80.73,46.82-8.46,20.82,3.38,38.71,3.89,39.46l.95,1.41,1.55.7c7.85,3.55,15.44,5.34,22.54,5.34,49.66,0,58.63-83.69,58.99-87.26l.82-8.14h0Z"/>
      <path class="cls-1" d="m175.29,190.04s-8.22,81.86-53.02,81.86c-6.01,0-12.68-1.47-20.07-4.81,0,0-36.67-54.25,73.09-77.04m6.79-7.54l-8.01,1.66c-44.72,9.29-71.88,25.04-80.73,46.82-8.46,20.82,3.38,38.71,3.89,39.46l.95,1.41,1.55.7c7.85,3.55,15.44,5.34,22.54,5.34,49.66,0,58.63-83.69,58.99-87.26l.82-8.14h0Z"/>
      <path class="cls-1" d="m87.87,95.28c81.52,76.96,21.84,103.93,21.84,103.93-68.05-8.74-21.84-103.93-21.84-103.93m-1.83-9.98l-3.57,7.36c-1.13,2.33-27.49,57.43-9.83,90.11,6.84,12.64,19.05,20.18,36.3,22.39l1.69.22,1.55-.7c.83-.37,20.28-9.4,24-31.56,3.89-23.19-10.98-50.84-44.19-82.2l-5.95-5.61h0Z"/>
      <path class="cls-1" d="m69.51,160.09c81.52,76.96,21.84,103.93,21.84,103.93-68.05-8.74-21.84-103.93-21.84-103.93m-1.83-9.98l-3.57,7.36c-1.13,2.33-27.49,57.43-9.83,90.11,6.84,12.64,19.05,20.18,36.3,22.39l1.69.22,1.55-.7c.83-.37,20.28-9.4,24-31.56,3.89-23.19-10.98-50.84-44.19-82.2l-5.95-5.61h0Z"/>
      <path class="cls-1" d="m141.84,106.58c32.04,97.77-20.33,101.79-29.16,101.79-.79,0-1.23-.03-1.23-.03-55.63-40.15,30.4-101.76,30.4-101.76m3.15-9.64l-6.65,4.76c-2.11,1.51-51.57,37.35-51.63,74.5-.03,14.37,7.11,26.82,21.22,37l1.38.99,1.7.12c.11,0,.71.05,1.67.05,5.32,0,23.6-1.27,35.42-17.58,13.54-18.68,13.35-49.66-.55-92.08l-2.55-7.77h0Z"/>
      <g>
        <path class="cls-1" d="m96.41,266.29c-.81,0-1.27-.03-1.27-.03h-.14s-.12-.09-.12-.09c-12.59-9.08-18.96-20.03-18.94-32.53.06-34.35,48.84-69.68,49.34-70.04l.55-.4.21.65c13.32,40.65,13.77,69.97,1.32,87.14-10.29,14.2-26.29,15.3-30.96,15.3h0Z"/>
        <path class="cls-1" d="m125.58,164c32.04,97.77-20.33,101.79-29.16,101.79-.79,0-1.23-.03-1.23-.03-55.63-40.15,30.4-101.76,30.4-101.76m.53-1.61l-1.11.79c-.12.09-12.49,8.99-24.69,22.01-11.32,12.08-24.82,30.29-24.86,48.43-.02,12.67,6.42,23.76,19.14,32.94l.23.17.28.02s.49.03,1.31.03c4.72,0,20.94-1.12,31.37-15.51,12.54-17.31,12.12-46.78-1.25-87.59l-.42-1.3h0Z"/>
      </g>
    </g>
    <g id="_葉" data-name="葉">
      <path class="cls-4" d="m2.78,448.59l16.58,70.84s2.61,6.06,7.34,2.08l52.08-50.81"/>
      <g class="cls-7">
        <polygon class="cls-2" points="80.15 472.14 134.63 279.09 55.32 256.63 .82 449.06 1.29 449.2 10.77 447.45 16.87 453.61 25.58 451.64 31.68 457.8 41.22 456.07 47.07 462.16 56.85 460.5 64.64 467.13 73.31 465.15 79.31 471.28 80.15 472.14"/>
      </g>
      <path class="cls-1" d="m14.72,498.08l28.64,8.11-15.51,15.2s-4.63,4.01-7.34-2.08l-5.8-21.23Z"/>
    </g>
    <g id="_レイヤー_13のコピー_2" data-name="レイヤー 13のコピー 2">
      <g>
        <path class="cls-3" d="m39.63,312.06l-6.03-1.71c-4.21,2.35-1.57,5.55-1.57,5.55l6.03,1.71"/>
        <path class="cls-3" d="m117.35,340.05l5.3,1.5c5.24-1.38,1.57-5.55,1.57-5.55l-5.3-1.5"/>
        <path class="cls-3" d="m117.35,340.06l5.3,1.5s3.67,4.17-1.57,5.55l-5.3-1.5"/>
        <path class="cls-3" d="m38.05,317.61l-6.03-1.7c-4.21,2.35-1.57,5.55-1.57,5.55l6.03,1.71"/>
        <path class="cls-3" d="m96.36,414.71l5.12,1.45c5.24-1.38,1.57-5.55,1.57-5.55l-5.13-1.45"/>
        <path class="cls-3" d="m18.49,386.67l-6.07-1.72c-4.21,2.35-1.57,5.55-1.57,5.55l6.07,1.72"/>
        <path class="cls-3" d="m16.92,392.22l-6.07-1.71c-4.21,2.35-1.57,5.55-1.57,5.55l6.07,1.72"/>
        <path class="cls-3" d="m96.36,414.71l5.12,1.45s3.67,4.17-1.57,5.55l-5.12-1.45"/>
      </g>
      <path class="cls-1" d="m273.97,467.29v-251.95h62.89v251.95h-62.89Zm159.38,0h-83.98v-62.89h126.17l-42.19,62.89Z"/>
      <path class="cls-1" d="m488.42,316.11v-31.64c0-8.33,3.12-15.62,9.38-21.88s13.67-9.38,22.27-9.38h125.78c8.85,0,16.34,3.06,22.46,9.18,6.12,6.12,9.18,13.48,9.18,22.07v31.64h-189.06Zm157.42,151.17h-125.78c-8.59,0-16.02-3.12-22.27-9.38s-9.38-13.67-9.38-22.27v-107.03h63.28v75.78h62.89v-75.78h62.89v107.03c0,8.59-3.12,16.02-9.38,22.27s-13.67,9.38-22.27,9.38Z"/>
      <path class="cls-1" d="m702.49,467.29v-251.95h63.28v251.95h-63.28Zm133.2,0l-57.42-88.28v-62.11l41.02-63.67h75l-61.33,94.53,77.73,119.53h-75Z"/>
      <path class="cls-1" d="m929.83,227.83v-50.39h63.28v50.39h-63.28Zm0,239.45v-214.06h63.28v214.06h-63.28Z"/>
    </g>
  </g>
</svg>