<?xml version="1.0" encoding="UTF-8"?>
<svg xmlns="http://www.w3.org/2000/svg" viewBox="0 0 991.77 524.87">
  <defs>
    <style>
      .cls-1 {
        fill: #009250;
      }

      .cls-2 {
        fill: #6d3420;
      }

      .cls-3 {
        isolation: isolate;
      }

      .cls-4 {
        fill: #819c1a;
        stroke: #294c00;
      }

      .cls-4, .cls-5 {
        stroke-miterlimit: 10;
        stroke-width: 4px;
      }

      .cls-6 {
        fill: #005e1f;
      }

      .cls-7 {
        fill: #3eb680;
      }

      .cls-5 {
        stroke: #6d3420;
      }

      .cls-5, .cls-8 {
        fill: #fce6de;
      }

      .cls-9 {
        fill: #6fc99e;
      }

      .cls-10 {
        fill: #e7855e;
      }
    </style>
  </defs>
  <g class="cls-3">
    <g id="_レイヤー_6" data-name="レイヤー 6">
      <g>
        <g>
          <g>
            <path class="cls-1" d="m127.95,120.99c-15.67-4.76-25.79-13.59-30.1-26.23-11.48-33.72,22.84-82.44,24.31-84.5l2.37-3.33,2.46,3.26c26.88,35.6,36.79,64.41,29.44,85.62-6.84,19.74-26.04,24.99-26.85,25.2l-.82.22-.81-.25Z"/>
            <path class="cls-6" d="m124.6,12c67.55,89.47,4.22,106.12,4.22,106.12-65.64-19.95-4.22-106.12-4.22-106.12m-.14-10.14l-4.75,6.66c-1.5,2.11-36.68,52.05-24.71,87.21,4.63,13.61,15.42,23.07,32.06,28.13l1.63.49,1.64-.43c.88-.23,21.57-5.89,28.92-27.12,7.7-22.21-2.36-51.96-29.88-88.41l-4.93-6.53h0Z"/>
          </g>
          <g>
            <path class="cls-1" d="m70.7,124.98c-16.24-2.08-27.7-9.1-34.05-20.85-16.94-31.34,8.78-85.1,9.89-87.37l1.79-3.68,2.97,2.81c32.44,30.63,47.01,57.38,43.29,79.52-3.45,20.6-21.51,28.98-22.28,29.33l-.77.35-.84-.11Z"/>
            <path class="cls-6" d="m49.24,18.07c81.52,76.96,21.84,103.93,21.84,103.93C3.03,113.26,49.24,18.07,49.24,18.07m-1.83-9.98l-3.57,7.36c-1.13,2.33-27.49,57.43-9.83,90.11,6.84,12.64,19.05,20.18,36.3,22.39l1.69.22,1.55-.7c.83-.37,20.28-9.4,24-31.56,3.89-23.19-10.98-50.84-44.19-82.2l-5.95-5.61h0Z"/>
          </g>
          <g>
            <path class="cls-1" d="m157.58,127.26c-4.59,0-9.54-.69-14.7-2.04l-.82-.22-.59-.61c-.58-.61-14.17-15.15-9.65-35.54,4.86-21.91,28.4-41.25,69.96-57.47l3.81-1.49.27,4.08c.15,2.28,3.5,56.19-19.73,81.04-7.6,8.13-17.21,12.25-28.56,12.25Z"/>
            <path class="cls-6" d="m202.88,34.17s6.07,90.09-45.3,90.09c-4.24,0-8.87-.61-13.93-1.94,0,0-45.2-47.38,59.23-88.15m5.44-8.56l-7.62,2.97c-42.55,16.61-66.71,36.67-71.8,59.62-4.87,21.94,9.78,37.61,10.41,38.26l1.17,1.23,1.64.43c5.41,1.42,10.61,2.14,15.46,2.14,12.22,0,22.56-4.44,30.75-13.2,24.11-25.79,20.69-80.96,20.53-83.29l-.55-8.16h0Z"/>
          </g>
          <g>
            <path class="cls-1" d="m212.42,162.69c-6.68,0-13.85-1.71-21.31-5.08l-.77-.35-.48-.7c-.47-.7-11.45-17.3-3.59-36.65,8.45-20.8,34.88-35.94,78.56-45.01l4-.83-.41,4.07c-.35,3.45-9.03,84.56-56.01,84.56Z"/>
            <path class="cls-6" d="m265.44,77.83s-8.22,81.86-53.02,81.86c-6.01,0-12.68-1.47-20.07-4.81,0,0-36.67-54.25,73.09-77.04m6.79-7.54l-8.01,1.66c-44.72,9.29-71.88,25.04-80.73,46.82-8.46,20.82,3.38,38.71,3.89,39.46l.95,1.41,1.55.7c7.85,3.55,15.44,5.34,22.54,5.34,49.66,0,58.63-83.69,58.99-87.26l.82-8.14h0Z"/>
          </g>
          <g>
            <path class="cls-1" d="m164.73,152.73c-6.68,0-13.85-1.71-21.31-5.08l-.77-.35-.48-.7c-.47-.7-11.45-17.3-3.59-36.65,8.45-20.8,34.88-35.94,78.56-45.01l4-.83-.41,4.07c-.35,3.45-9.03,84.56-56.01,84.56Z"/>
            <path class="cls-6" d="m217.75,67.87s-8.22,81.86-53.02,81.86c-6.01,0-12.68-1.47-20.07-4.81,0,0-36.67-54.25,73.09-77.04m6.79-7.54l-8.01,1.66c-44.72,9.29-71.88,25.04-80.73,46.82-8.46,20.82,3.38,38.71,3.89,39.46l.95,1.41,1.55.7c7.85,3.55,15.44,5.34,22.54,5.34,49.66,0,58.63-83.69,58.99-87.26l.82-8.14h0Z"/>
          </g>
          <g>
            <path class="cls-1" d="m187.49,219.43c-6.68,0-13.85-1.71-21.31-5.08l-.77-.35-.48-.7c-.47-.7-11.45-17.3-3.59-36.65,8.45-20.8,34.88-35.94,78.56-45.01l4-.83-.41,4.07c-.35,3.45-9.03,84.56-56.01,84.56Z"/>
            <path class="cls-6" d="m240.51,134.58s-8.22,81.86-53.02,81.86c-6.01,0-12.68-1.47-20.07-4.81,0,0-36.67-54.25,73.09-77.04m6.79-7.54l-8.01,1.66c-44.72,9.29-71.88,25.04-80.73,46.82-8.46,20.82,3.38,38.71,3.89,39.46l.95,1.41,1.55.7c7.85,3.55,15.44,5.34,22.54,5.34,49.66,0,58.63-83.69,58.99-87.26l.82-8.14h0Z"/>
          </g>
          <g>
            <path class="cls-1" d="m64.2,189.02c-16.24-2.08-27.7-9.1-34.05-20.85-16.94-31.34,8.78-85.1,9.89-87.37l1.79-3.68,2.97,2.81c32.44,30.63,47.01,57.38,43.29,79.52-3.45,20.6-21.51,28.98-22.28,29.33l-.77.35-.84-.11Z"/>
            <path class="cls-6" d="m42.74,82.11c81.52,76.96,21.84,103.93,21.84,103.93-68.05-8.74-21.84-103.93-21.84-103.93m-1.83-9.98l-3.57,7.36c-1.13,2.33-27.49,57.43-9.83,90.11,6.84,12.64,19.05,20.18,36.3,22.39l1.69.22,1.55-.7c.83-.37,20.28-9.4,24-31.56,3.89-23.19-10.98-50.84-44.19-82.2l-5.95-5.61h0Z"/>
          </g>
          <g>
            <path class="cls-1" d="m138.67,279.16c-6.68,0-13.85-1.71-21.31-5.08l-.77-.35-.48-.7c-.47-.7-11.45-17.3-3.59-36.65,8.45-20.8,34.88-35.94,78.56-45.01l4-.83-.41,4.07c-.35,3.45-9.03,84.56-56.01,84.56Z"/>
            <path class="cls-6" d="m191.7,194.3s-8.22,81.86-53.02,81.86c-6.01,0-12.68-1.47-20.07-4.81,0,0-36.67-54.25,73.09-77.04m6.79-7.54l-8.01,1.66c-44.72,9.29-71.88,25.04-80.73,46.82-8.46,20.82,3.38,38.71,3.89,39.46l.95,1.41,1.55.7c7.85,3.55,15.44,5.34,22.54,5.34,49.66,0,58.63-83.69,58.99-87.26l.82-8.14h0Z"/>
          </g>
          <g>
            <path class="cls-1" d="m69.64,260.56c-16.24-2.08-27.7-9.1-34.05-20.85-16.94-31.34,8.78-85.1,9.89-87.37l1.79-3.68,2.97,2.81c32.44,30.63,47.01,57.38,43.29,79.52-3.45,20.6-21.51,28.98-22.28,29.33l-.77.35-.84-.11Z"/>
            <path class="cls-6" d="m48.18,153.66c81.52,76.96,21.84,103.93,21.84,103.93-68.05-8.74-21.84-103.93-21.84-103.93m-1.83-9.98l-3.57,7.36c-1.13,2.33-27.49,57.43-9.83,90.11,6.84,12.64,19.05,20.18,36.3,22.39l1.69.22,1.55-.7c.83-.37,20.28-9.4,24-31.56,3.89-23.19-10.98-50.84-44.19-82.2l-5.95-5.61h0Z"/>
          </g>
          <g>
            <path class="cls-1" d="m117.96,136.89c-16.24-2.08-27.7-9.1-34.05-20.85-16.94-31.34,8.78-85.1,9.89-87.37l1.79-3.68,2.97,2.81c32.44,30.63,47.01,57.38,43.29,79.52-3.45,20.6-21.51,28.98-22.28,29.33l-.77.35-.84-.11Z"/>
            <path class="cls-6" d="m96.5,29.99c81.52,76.96,21.84,103.93,21.84,103.93-68.05-8.74-21.84-103.93-21.84-103.93m-1.83-9.98l-3.57,7.36c-1.13,2.33-27.49,57.43-9.83,90.11,6.84,12.64,19.05,20.18,36.3,22.39l1.69.22,1.55-.7c.83-.37,20.28-9.4,24-31.56,3.89-23.19-10.98-50.84-44.19-82.2l-5.95-5.61h0Z"/>
          </g>
          <g>
            <path class="cls-1" d="m128.58,151.68c-.93,0-1.45-.04-1.45-.04l-.84-.06-.7-.49c-13.28-9.58-20-21.21-19.97-34.56.06-35.62,48.33-70.59,50.38-72.06l3.32-2.38,1.27,3.89c13.59,41.45,13.91,71.53.97,89.39-10.98,15.16-28.02,16.33-32.98,16.33h0Z"/>
            <path class="cls-6" d="m157.74,46.89c32.04,97.77-20.33,101.79-29.16,101.79-.79,0-1.23-.03-1.23-.03-55.63-40.15,30.4-101.76,30.4-101.76m3.15-9.64l-6.65,4.76c-2.11,1.51-51.57,37.35-51.63,74.5-.03,14.37,7.11,26.82,21.22,37l1.38,1,1.7.12c.11,0,.71.05,1.67.05,5.32,0,23.6-1.27,35.42-17.58,13.54-18.68,13.35-49.66-.55-92.08l-2.55-7.77h0Z"/>
          </g>
          <g>
            <path class="cls-1" d="m143.9,210.63c-6.68,0-13.85-1.71-21.31-5.08l-.77-.35-.48-.7c-.47-.7-11.45-17.3-3.59-36.65,8.45-20.8,34.88-35.94,78.56-45.01l4-.83-.41,4.07c-.35,3.45-9.03,84.56-56.01,84.56Z"/>
            <path class="cls-6" d="m196.92,125.78s-8.22,81.86-53.02,81.86c-6.01,0-12.68-1.47-20.07-4.81,0,0-36.67-54.25,73.09-77.04m6.79-7.54l-8.01,1.66c-44.72,9.29-71.88,25.04-80.73,46.82-8.46,20.82,3.38,38.71,3.89,39.46l.95,1.41,1.55.7c7.85,3.55,15.44,5.34,22.54,5.34,49.66,0,58.63-83.69,58.99-87.26l.82-8.14h0Z"/>
          </g>
          <g>
            <path class="cls-1" d="m121.45,274.28c-6.68,0-13.85-1.71-21.31-5.08l-.77-.35-.48-.7c-.47-.7-11.45-17.3-3.59-36.65,8.45-20.8,34.88-35.94,78.56-45.01l4-.83-.41,4.07c-.35,3.45-9.03,84.56-56.01,84.56Z"/>
            <path class="cls-6" d="m174.47,189.42s-8.22,81.86-53.02,81.86c-6.01,0-12.68-1.47-20.07-4.81,0,0-36.67-54.25,73.09-77.04m6.79-7.54l-8.01,1.66c-44.72,9.29-71.88,25.04-80.73,46.82-8.46,20.82,3.38,38.71,3.89,39.46l.95,1.41,1.55.7c7.85,3.55,15.44,5.34,22.54,5.34,49.66,0,58.63-83.69,58.99-87.26l.82-8.14h0Z"/>
          </g>
          <g>
            <path class="cls-1" d="m108.5,201.56c-16.24-2.08-27.7-9.1-34.05-20.84-16.94-31.34,8.78-85.1,9.89-87.37l1.79-3.68,2.97,2.81c32.44,30.63,47.01,57.38,43.29,79.52-3.45,20.6-21.51,28.98-22.28,29.33l-.77.35-.84-.11Z"/>
            <path class="cls-6" d="m87.04,94.66c81.52,76.96,21.84,103.93,21.84,103.93-68.05-8.74-21.84-103.93-21.84-103.93m-1.83-9.98l-3.57,7.36c-1.13,2.33-27.49,57.43-9.83,90.11,6.84,12.64,19.05,20.18,36.3,22.39l1.69.22,1.55-.7c.83-.37,20.28-9.4,24-31.56,3.89-23.19-10.98-50.84-44.19-82.2l-5.95-5.61h0Z"/>
          </g>
          <g>
            <path class="cls-1" d="m90.15,266.37c-16.24-2.08-27.7-9.1-34.05-20.84-16.94-31.34,8.78-85.1,9.89-87.37l1.79-3.68,2.97,2.81c32.44,30.63,47.01,57.38,43.29,79.52-3.45,20.6-21.51,28.98-22.28,29.33l-.77.35-.84-.11Z"/>
            <path class="cls-6" d="m68.69,159.47c81.52,76.96,21.84,103.93,21.84,103.93-68.05-8.74-21.84-103.93-21.84-103.93m-1.83-9.98l-3.57,7.36c-1.13,2.33-27.49,57.43-9.83,90.11,6.84,12.64,19.05,20.18,36.3,22.39l1.69.22,1.55-.7c.83-.37,20.28-9.4,24-31.56,3.89-23.19-10.98-50.84-44.19-82.2l-5.95-5.61h0Z"/>
          </g>
          <g>
            <path class="cls-1" d="m111.85,210.75c-.93,0-1.45-.04-1.45-.04l-.84-.06-.7-.49c-13.28-9.58-20-21.21-19.97-34.56.06-35.62,48.33-70.59,50.38-72.06l3.32-2.38,1.27,3.89c13.59,41.45,13.91,71.53.97,89.39-10.98,15.16-28.02,16.33-32.98,16.33h0Z"/>
            <path class="cls-6" d="m141.02,105.96c32.04,97.77-20.33,101.79-29.16,101.79-.79,0-1.23-.03-1.23-.03-55.63-40.15,30.4-101.76,30.4-101.76m3.15-9.64l-6.65,4.76c-2.11,1.51-51.57,37.35-51.63,74.5-.03,14.37,7.11,26.82,21.22,37l1.38.99,1.7.12c.11,0,.71.05,1.67.05,5.32,0,23.6-1.27,35.42-17.58,13.54-18.68,13.35-49.66-.55-92.08l-2.55-7.77h0Z"/>
          </g>
          <g>
            <path class="cls-1" d="m95.59,268.17c-.93,0-1.45-.04-1.45-.04l-.84-.06-.7-.49c-13.28-9.58-20-21.21-19.97-34.56.06-35.62,48.33-70.59,50.38-72.06l3.32-2.38,1.27,3.89c13.59,41.46,13.91,71.53.97,89.39-10.98,15.16-28.02,16.33-32.98,16.33h0Z"/>
            <path class="cls-6" d="m124.75,163.38c32.04,97.77-20.33,101.79-29.16,101.79-.79,0-1.23-.03-1.23-.03-55.63-40.15,30.4-101.76,30.4-101.76m3.15-9.64l-6.65,4.76c-2.11,1.51-51.57,37.35-51.63,74.5-.03,14.37,7.11,26.82,21.22,37l1.38.99,1.7.12c.11,0,.71.05,1.67.05,5.32,0,23.6-1.27,35.42-17.58,13.54-18.68,13.35-49.66-.55-92.08l-2.55-7.77h0Z"/>
          </g>
          <g>
            <path class="cls-1" d="m127.95,120.99c-15.67-4.76-25.79-13.59-30.1-26.23-11.48-33.72,22.84-82.44,24.31-84.5l2.37-3.33,2.46,3.26c26.88,35.6,36.79,64.41,29.44,85.62-6.84,19.74-26.04,24.99-26.85,25.2l-.82.22-.81-.25Z"/>
            <path class="cls-6" d="m124.6,12c67.55,89.47,4.22,106.12,4.22,106.12-65.64-19.95-4.22-106.12-4.22-106.12m-.14-10.14l-4.75,6.66c-1.5,2.11-36.68,52.05-24.71,87.21,4.63,13.61,15.42,23.07,32.06,28.13l1.63.49,1.64-.43c.88-.23,21.57-5.89,28.92-27.12,7.7-22.21-2.36-51.96-29.88-88.41l-4.93-6.53h0Z"/>
          </g>
          <g>
            <path class="cls-1" d="m69.55,123.19c-16.24-2.08-27.7-9.1-34.05-20.85-16.94-31.34,8.78-85.1,9.89-87.37l1.79-3.68,2.97,2.81c32.44,30.63,47.01,57.38,43.29,79.52-3.45,20.6-21.51,28.98-22.28,29.33l-.77.35-.84-.11Z"/>
            <path class="cls-6" d="m48.09,16.28c81.52,76.96,21.84,103.93,21.84,103.93C1.89,111.48,48.09,16.28,48.09,16.28m-1.83-9.98l-3.57,7.36c-1.13,2.33-27.49,57.43-9.83,90.11,6.84,12.64,19.05,20.18,36.3,22.39l1.69.22,1.55-.7c.83-.37,20.28-9.4,24-31.56,3.89-23.19-10.98-50.84-44.19-82.2l-5.95-5.61h0Z"/>
          </g>
          <g>
            <path class="cls-1" d="m157.58,127.26c-4.59,0-9.54-.69-14.7-2.04l-.82-.22-.59-.61c-.58-.61-14.17-15.15-9.65-35.54,4.86-21.91,28.4-41.25,69.96-57.47l3.81-1.49.27,4.08c.15,2.28,3.5,56.19-19.73,81.04-7.6,8.13-17.21,12.25-28.56,12.25Z"/>
            <path class="cls-6" d="m202.88,34.17s6.07,90.09-45.3,90.09c-4.24,0-8.87-.61-13.93-1.94,0,0-45.2-47.38,59.23-88.15m5.44-8.56l-7.62,2.97c-42.55,16.61-66.71,36.67-71.8,59.62-4.87,21.94,9.78,37.61,10.41,38.26l1.17,1.23,1.64.43c5.41,1.42,10.61,2.14,15.46,2.14,12.22,0,22.56-4.44,30.75-13.2,24.11-25.79,20.69-80.96,20.53-83.29l-.55-8.16h0Z"/>
          </g>
          <g>
            <path class="cls-1" d="m212.42,162.69c-6.68,0-13.85-1.71-21.31-5.08l-.77-.35-.48-.7c-.47-.7-11.45-17.3-3.59-36.65,8.45-20.8,34.88-35.94,78.56-45.01l4-.83-.41,4.07c-.35,3.45-9.03,84.56-56.01,84.56Z"/>
            <path class="cls-6" d="m265.44,77.83s-8.22,81.86-53.02,81.86c-6.01,0-12.68-1.47-20.07-4.81,0,0-36.67-54.25,73.09-77.04m6.79-7.54l-8.01,1.66c-44.72,9.29-71.88,25.04-80.73,46.82-8.46,20.82,3.38,38.71,3.89,39.46l.95,1.41,1.55.7c7.85,3.55,15.44,5.34,22.54,5.34,49.66,0,58.63-83.69,58.99-87.26l.82-8.14h0Z"/>
          </g>
          <g>
            <path class="cls-7" d="m164.73,152.73c-6.68,0-13.85-1.71-21.31-5.08l-.77-.35-.48-.7c-.47-.7-11.45-17.3-3.59-36.65,8.45-20.8,34.88-35.94,78.56-45.01l4-.83-.41,4.07c-.35,3.45-9.03,84.56-56.01,84.56Z"/>
            <path class="cls-6" d="m217.75,67.87s-8.22,81.86-53.02,81.86c-6.01,0-12.68-1.47-20.07-4.81,0,0-36.67-54.25,73.09-77.04m6.79-7.54l-8.01,1.66c-44.72,9.29-71.88,25.04-80.73,46.82-8.46,20.82,3.38,38.71,3.89,39.46l.95,1.41,1.55.7c7.85,3.55,15.44,5.34,22.54,5.34,49.66,0,58.63-83.69,58.99-87.26l.82-8.14h0Z"/>
          </g>
          <g>
            <path class="cls-1" d="m187.49,219.43c-6.68,0-13.85-1.71-21.31-5.08l-.77-.35-.48-.7c-.47-.7-11.45-17.3-3.59-36.65,8.45-20.8,34.88-35.94,78.56-45.01l4-.83-.41,4.07c-.35,3.45-9.03,84.56-56.01,84.56Z"/>
            <path class="cls-6" d="m240.51,134.58s-8.22,81.86-53.02,81.86c-6.01,0-12.68-1.47-20.07-4.81,0,0-36.67-54.25,73.09-77.04m6.79-7.54l-8.01,1.66c-44.72,9.29-71.88,25.04-80.73,46.82-8.46,20.82,3.38,38.71,3.89,39.46l.95,1.41,1.55.7c7.85,3.55,15.44,5.34,22.54,5.34,49.66,0,58.63-83.69,58.99-87.26l.82-8.14h0Z"/>
          </g>
          <g>
            <path class="cls-1" d="m64.2,189.02c-16.24-2.08-27.7-9.1-34.05-20.85-16.94-31.34,8.78-85.1,9.89-87.37l1.79-3.68,2.97,2.81c32.44,30.63,47.01,57.38,43.29,79.52-3.45,20.6-21.51,28.98-22.28,29.33l-.77.35-.84-.11Z"/>
            <path class="cls-6" d="m42.74,82.11c81.52,76.96,21.84,103.93,21.84,103.93-68.05-8.74-21.84-103.93-21.84-103.93m-1.83-9.98l-3.57,7.36c-1.13,2.33-27.49,57.43-9.83,90.11,6.84,12.64,19.05,20.18,36.3,22.39l1.69.22,1.55-.7c.83-.37,20.28-9.4,24-31.56,3.89-23.19-10.98-50.84-44.19-82.2l-5.95-5.61h0Z"/>
          </g>
          <g>
            <path class="cls-1" d="m138.67,279.16c-6.68,0-13.85-1.71-21.31-5.08l-.77-.35-.48-.7c-.47-.7-11.45-17.3-3.59-36.65,8.45-20.8,34.88-35.94,78.56-45.01l4-.83-.41,4.07c-.35,3.45-9.03,84.56-56.01,84.56Z"/>
            <path class="cls-6" d="m191.7,194.3s-8.22,81.86-53.02,81.86c-6.01,0-12.68-1.47-20.07-4.81,0,0-36.67-54.25,73.09-77.04m6.79-7.54l-8.01,1.66c-44.72,9.29-71.88,25.04-80.73,46.82-8.46,20.82,3.38,38.71,3.89,39.46l.95,1.41,1.55.7c7.85,3.55,15.44,5.34,22.54,5.34,49.66,0,58.63-83.69,58.99-87.26l.82-8.14h0Z"/>
          </g>
          <g>
            <path class="cls-1" d="m69.64,260.56c-16.24-2.08-27.7-9.1-34.05-20.85-16.94-31.34,8.78-85.1,9.89-87.37l1.79-3.68,2.97,2.81c32.44,30.63,47.01,57.38,43.29,79.52-3.45,20.6-21.51,28.98-22.28,29.33l-.77.35-.84-.11Z"/>
            <path class="cls-6" d="m48.18,153.66c81.52,76.96,21.84,103.93,21.84,103.93-68.05-8.74-21.84-103.93-21.84-103.93m-1.83-9.98l-3.57,7.36c-1.13,2.33-27.49,57.43-9.83,90.11,6.84,12.64,19.05,20.18,36.3,22.39l1.69.22,1.55-.7c.83-.37,20.28-9.4,24-31.56,3.89-23.19-10.98-50.84-44.19-82.2l-5.95-5.61h0Z"/>
          </g>
          <g>
            <path class="cls-7" d="m117.96,136.89c-16.24-2.08-27.7-9.1-34.05-20.85-16.94-31.34,8.78-85.1,9.89-87.37l1.79-3.68,2.97,2.81c32.44,30.63,47.01,57.38,43.29,79.52-3.45,20.6-21.51,28.98-22.28,29.33l-.77.35-.84-.11Z"/>
            <path class="cls-6" d="m96.5,29.99c81.52,76.96,21.84,103.93,21.84,103.93-68.05-8.74-21.84-103.93-21.84-103.93m-1.83-9.98l-3.57,7.36c-1.13,2.33-27.49,57.43-9.83,90.11,6.84,12.64,19.05,20.18,36.3,22.39l1.69.22,1.55-.7c.83-.37,20.28-9.4,24-31.56,3.89-23.19-10.98-50.84-44.19-82.2l-5.95-5.61h0Z"/>
          </g>
          <g>
            <path class="cls-9" d="m128.58,151.68c-.93,0-1.45-.04-1.45-.04l-.84-.06-.7-.49c-13.28-9.58-20-21.21-19.97-34.56.06-35.62,48.33-70.59,50.38-72.06l3.32-2.38,1.27,3.89c13.59,41.45,13.91,71.53.97,89.39-10.98,15.16-28.02,16.33-32.98,16.33h0Z"/>
            <path class="cls-6" d="m157.74,46.89c32.04,97.77-20.33,101.79-29.16,101.79-.79,0-1.23-.03-1.23-.03-55.63-40.15,30.4-101.76,30.4-101.76m3.15-9.64l-6.65,4.76c-2.11,1.51-51.57,37.35-51.63,74.5-.03,14.37,7.11,26.82,21.22,37l1.38,1,1.7.12c.11,0,.71.05,1.67.05,5.32,0,23.6-1.27,35.42-17.58,13.54-18.68,13.35-49.66-.55-92.08l-2.55-7.77h0Z"/>
          </g>
          <g>
            <path class="cls-7" d="m143.9,210.63c-6.68,0-13.85-1.71-21.31-5.08l-.77-.35-.48-.7c-.47-.7-11.45-17.3-3.59-36.65,8.45-20.8,34.88-35.94,78.56-45.01l4-.83-.41,4.07c-.35,3.45-9.03,84.56-56.01,84.56Z"/>
            <path class="cls-6" d="m196.92,125.78s-8.22,81.86-53.02,81.86c-6.01,0-12.68-1.47-20.07-4.81,0,0-36.67-54.25,73.09-77.04m6.79-7.54l-8.01,1.66c-44.72,9.29-71.88,25.04-80.73,46.82-8.46,20.82,3.38,38.71,3.89,39.46l.95,1.41,1.55.7c7.85,3.55,15.44,5.34,22.54,5.34,49.66,0,58.63-83.69,58.99-87.26l.82-8.14h0Z"/>
          </g>
          <g>
            <path class="cls-7" d="m121.45,274.28c-6.68,0-13.85-1.71-21.31-5.08l-.77-.35-.48-.7c-.47-.7-11.45-17.3-3.59-36.65,8.45-20.8,34.88-35.94,78.56-45.01l4-.83-.41,4.07c-.35,3.45-9.03,84.56-56.01,84.56Z"/>
            <path class="cls-6" d="m174.47,189.42s-8.22,81.86-53.02,81.86c-6.01,0-12.68-1.47-20.07-4.81,0,0-36.67-54.25,73.09-77.04m6.79-7.54l-8.01,1.66c-44.72,9.29-71.88,25.04-80.73,46.82-8.46,20.82,3.38,38.71,3.89,39.46l.95,1.41,1.55.7c7.85,3.55,15.44,5.34,22.54,5.34,49.66,0,58.63-83.69,58.99-87.26l.82-8.14h0Z"/>
          </g>
          <g>
            <path class="cls-7" d="m108.5,201.56c-16.24-2.08-27.7-9.1-34.05-20.84-16.94-31.34,8.78-85.1,9.89-87.37l1.79-3.68,2.97,2.81c32.44,30.63,47.01,57.38,43.29,79.52-3.45,20.6-21.51,28.98-22.28,29.33l-.77.35-.84-.11Z"/>
            <path class="cls-6" d="m87.04,94.66c81.52,76.96,21.84,103.93,21.84,103.93-68.05-8.74-21.84-103.93-21.84-103.93m-1.83-9.98l-3.57,7.36c-1.13,2.33-27.49,57.43-9.83,90.11,6.84,12.64,19.05,20.18,36.3,22.39l1.69.22,1.55-.7c.83-.37,20.28-9.4,24-31.56,3.89-23.19-10.98-50.84-44.19-82.2l-5.95-5.61h0Z"/>
          </g>
          <g>
            <path class="cls-7" d="m90.15,266.37c-16.24-2.08-27.7-9.1-34.05-20.84-16.94-31.34,8.78-85.1,9.89-87.37l1.79-3.68,2.97,2.81c32.44,30.63,47.01,57.38,43.29,79.52-3.45,20.6-21.51,28.98-22.28,29.33l-.77.35-.84-.11Z"/>
            <path class="cls-6" d="m68.69,159.47c81.52,76.96,21.84,103.93,21.84,103.93-68.05-8.74-21.84-103.93-21.84-103.93m-1.83-9.98l-3.57,7.36c-1.13,2.33-27.49,57.43-9.83,90.11,6.84,12.64,19.05,20.18,36.3,22.39l1.69.22,1.55-.7c.83-.37,20.28-9.4,24-31.56,3.89-23.19-10.98-50.84-44.19-82.2l-5.95-5.61h0Z"/>
          </g>
          <g>
            <path class="cls-9" d="m111.85,210.75c-.93,0-1.45-.04-1.45-.04l-.84-.06-.7-.49c-13.28-9.58-20-21.21-19.97-34.56.06-35.62,48.33-70.59,50.38-72.06l3.32-2.38,1.27,3.89c13.59,41.45,13.91,71.53.97,89.39-10.98,15.16-28.02,16.33-32.98,16.33h0Z"/>
            <path class="cls-6" d="m141.02,105.96c32.04,97.77-20.33,101.79-29.16,101.79-.79,0-1.23-.03-1.23-.03-55.63-40.15,30.4-101.76,30.4-101.76m3.15-9.64l-6.65,4.76c-2.11,1.51-51.57,37.35-51.63,74.5-.03,14.37,7.11,26.82,21.22,37l1.38.99,1.7.12c.11,0,.71.05,1.67.05,5.32,0,23.6-1.27,35.42-17.58,13.54-18.68,13.35-49.66-.55-92.08l-2.55-7.77h0Z"/>
          </g>
          <g>
            <path class="cls-9" d="m95.59,268.17c-.93,0-1.45-.04-1.45-.04l-.84-.06-.7-.49c-13.28-9.58-20-21.21-19.97-34.56.06-35.62,48.33-70.59,50.38-72.06l3.32-2.38,1.27,3.89c13.59,41.46,13.91,71.53.97,89.39-10.98,15.16-28.02,16.33-32.98,16.33h0Z"/>
            <path class="cls-6" d="m124.75,163.38c32.04,97.77-20.33,101.79-29.16,101.79-.79,0-1.23-.03-1.23-.03-55.63-40.15,30.4-101.76,30.4-101.76m3.15-9.64l-6.65,4.76c-2.11,1.51-51.57,37.35-51.63,74.5-.03,14.37,7.11,26.82,21.22,37l1.38.99,1.7.12c.11,0,.71.05,1.67.05,5.32,0,23.6-1.27,35.42-17.58,13.54-18.68,13.35-49.66-.55-92.08l-2.55-7.77h0Z"/>
          </g>
        </g>
        <rect class="cls-8" x="1.85" y="439.1" width="80.52" height="21.88" transform="translate(124.66 5.64) rotate(15.87)"/>
        <path class="cls-5" d="m1.85,448.01l18.25,71.38s2.61,6.06,7.34,2.08l50.46-51.36"/>
        <g>
          <polygon class="cls-10" points="73.13 462.34 64.35 464.34 56.61 457.75 46.96 459.39 41.09 453.29 31.54 455.03 25.4 448.83 16.69 450.8 10.62 444.67 2.73 446.13 55.88 258.48 131.34 279.85 78.34 467.66 73.13 462.34"/>
          <path class="cls-2" d="m57.26,260.95l71.61,20.28-51.51,182.57-2.01-2.06-1.57-1.6-2.18.5-6.71,1.53-6.27-5.34-1.42-1.21-1.84.31-7.69,1.31-4.39-4.56-1.49-1.55-2.11.38-7.46,1.36-4.62-4.66-1.56-1.57-2.16.49-6.55,1.48-4.54-4.58-1.49-1.5-2.08.38-3.69.68,51.72-182.63m-2.76-4.94L0,448.44l.47.14,9.48-1.75,6.1,6.16,8.71-1.96,6.1,6.16,9.53-1.73,5.86,6.09,9.78-1.66,7.79,6.64,8.66-1.98,6,6.13.84.86,54.47-193.06-79.3-22.46h0Z"/>
        </g>
        <path class="cls-2" d="m13.9,497.46l28.64,8.11-15.51,15.2s-4.63,4.01-7.34-2.08l-5.8-21.23Z"/>
        <rect class="cls-2" x="75.81" y="469.88" width="3.86" height=".56" transform="translate(340.83 72.82) rotate(42.9)"/>
        <g>
          <path class="cls-4" d="m10.03,389.89c-4.21,2.35-1.57,5.55-1.57,5.55l6.07,1.72,79.44,22.49,5.12,1.45c5.24-1.38,1.57-5.55,1.57-5.55l-5.12-1.45-79.44-22.49-6.07-1.71Z"/>
          <path class="cls-4" d="m96.93,408.49l-79.26-22.44-6.07-1.72c-4.21,2.35-1.57,5.55-1.57,5.55l6.07,1.72,79.44,22.49,5.12,1.45c5.24-1.38,1.57-5.55,1.57-5.55l-5.3-1.5Z"/>
          <path class="cls-4" d="m121.83,340.93c5.24-1.38,1.57-5.55,1.57-5.55l-5.3-1.5-79.3-22.45-6.03-1.71c-4.21,2.35-1.57,5.55-1.57,5.55l6.03,1.71,79.3,22.45,5.3,1.5Z"/>
          <path class="cls-4" d="m29.63,320.83l6.03,1.71,79.3,22.45,5.3,1.5c5.24-1.38,1.57-5.55,1.57-5.55l-5.3-1.5-79.3-22.45-6.03-1.7c-4.21,2.35-1.57,5.55-1.57,5.55Z"/>
        </g>
        <path class="cls-2" d="m272.63,468.94v-251.95h62.89v251.95h-62.89Zm159.38,0h-83.98v-62.89h126.17l-42.19,62.89Z"/>
        <path class="cls-2" d="m487.09,315.49v-31.64c0-8.33,3.12-15.62,9.38-21.88s13.67-9.38,22.27-9.38h125.78c8.85,0,16.34,3.06,22.46,9.18,6.12,6.12,9.18,13.48,9.18,22.07v31.64h-189.06Zm157.42,151.17h-125.78c-8.59,0-16.02-3.12-22.27-9.38s-9.38-13.67-9.38-22.27v-107.03h63.28v75.78h62.89v-75.78h62.89v107.03c0,8.59-3.12,16.02-9.38,22.27s-13.67,9.38-22.27,9.38Z"/>
        <path class="cls-2" d="m701.15,466.67v-251.95h63.28v251.95h-63.28Zm133.2,0l-57.42-88.28v-62.11l41.02-63.67h75l-61.33,94.53,77.73,119.53h-75Z"/>
        <path class="cls-2" d="m928.49,227.21v-50.39h63.28v50.39h-63.28Zm0,239.45v-214.06h63.28v214.06h-63.28Z"/>
      </g>
    </g>
  </g>
</svg>